<?xml version="1.0" encoding="UTF-8" standalone="no"?>
<!DOCTYPE svg PUBLIC "-//W3C//DTD SVG 1.1//EN" "http://www.w3.org/Graphics/SVG/1.1/DTD/svg11.dtd">
<svg xmlns="http://www.w3.org/2000/svg" xmlns:xlink="http://www.w3.org/1999/xlink" version="1.1" width="864pt" height="432pt" viewBox="0 0 864 432">
<g enable-background="new">
<clipPath id="cp0">
<path transform="matrix(1,0,0,-1,0,432)" d="M 0 0 L 864 0 L 864 432 L 0 432 Z "/>
</clipPath>
<g clip-path="url(#cp0)">
<path transform="matrix(1,0,0,-1,0,432)" d="M 0 0 L 864 0 L 864 432 L 0 432 Z " fill="#ffffff"/>
<path transform="matrix(1,0,0,-1,0,432)" stroke-width="1.07" stroke-linecap="round" stroke-linejoin="round" fill="none" stroke="#ffffff" d="M 0 0 L 864 0 L 864 432 L 0 432 Z "/>
</g>
<clipPath id="cp1">
<path transform="matrix(1,0,0,-1,0,432)" d="M 5.48 5.48 L 432 5.48 L 432 426.52003 L 5.48 426.52003 Z "/>
</clipPath>
<g clip-path="url(#cp1)">
</g>
<clipPath id="cp2">
<path transform="matrix(1,0,0,-1,0,432)" d="M 35.13 42.33 L 426.52003 42.33 L 426.52003 421.03999 L 35.13 421.03999 Z "/>
</clipPath>
<g clip-path="url(#cp2)">
<path transform="matrix(1,0,0,-1,0,432)" stroke-width=".53" stroke-linecap="butt" stroke-linejoin="round" fill="none" stroke="#ebebeb" d="M 35.13 91.12 L 426.52 91.12 "/>
<path transform="matrix(1,0,0,-1,0,432)" stroke-width=".53" stroke-linecap="butt" stroke-linejoin="round" fill="none" stroke="#ebebeb" d="M 35.13 212.46 L 426.52 212.46 "/>
<path transform="matrix(1,0,0,-1,0,432)" stroke-width=".53" stroke-linecap="butt" stroke-linejoin="round" fill="none" stroke="#ebebeb" d="M 35.13 333.8 L 426.52 333.8 "/>
<path transform="matrix(1,0,0,-1,0,432)" stroke-width=".53" stroke-linecap="butt" stroke-linejoin="round" fill="none" stroke="#ebebeb" d="M 93.58 42.33 L 93.58 421.04 "/>
<path transform="matrix(1,0,0,-1,0,432)" stroke-width=".53" stroke-linecap="butt" stroke-linejoin="round" fill="none" stroke="#ebebeb" d="M 175.29 42.33 L 175.29 421.04 "/>
<path transform="matrix(1,0,0,-1,0,432)" stroke-width=".53" stroke-linecap="butt" stroke-linejoin="round" fill="none" stroke="#ebebeb" d="M 257 42.33 L 257 421.04 "/>
<path transform="matrix(1,0,0,-1,0,432)" stroke-width=".53" stroke-linecap="butt" stroke-linejoin="round" fill="none" stroke="#ebebeb" d="M 338.71 42.33 L 338.71 421.04 "/>
<path transform="matrix(1,0,0,-1,0,432)" stroke-width=".53" stroke-linecap="butt" stroke-linejoin="round" fill="none" stroke="#ebebeb" d="M 420.42 42.33 L 420.42 421.04 "/>
<path transform="matrix(1,0,0,-1,0,432)" stroke-width="1.07" stroke-linecap="butt" stroke-linejoin="round" fill="none" stroke="#ebebeb" d="M 35.13 151.79 L 426.52 151.79 "/>
<path transform="matrix(1,0,0,-1,0,432)" stroke-width="1.07" stroke-linecap="butt" stroke-linejoin="round" fill="none" stroke="#ebebeb" d="M 35.13 273.13 L 426.52 273.13 "/>
<path transform="matrix(1,0,0,-1,0,432)" stroke-width="1.07" stroke-linecap="butt" stroke-linejoin="round" fill="none" stroke="#ebebeb" d="M 35.13 394.48 L 426.52 394.48 "/>
<path transform="matrix(1,0,0,-1,0,432)" stroke-width="1.07" stroke-linecap="butt" stroke-linejoin="round" fill="none" stroke="#ebebeb" d="M 52.73 42.33 L 52.73 421.04 "/>
<path transform="matrix(1,0,0,-1,0,432)" stroke-width="1.07" stroke-linecap="butt" stroke-linejoin="round" fill="none" stroke="#ebebeb" d="M 134.44 42.33 L 134.44 421.04 "/>
<path transform="matrix(1,0,0,-1,0,432)" stroke-width="1.07" stroke-linecap="butt" stroke-linejoin="round" fill="none" stroke="#ebebeb" d="M 216.15 42.33 L 216.15 421.04 "/>
<path transform="matrix(1,0,0,-1,0,432)" stroke-width="1.07" stroke-linecap="butt" stroke-linejoin="round" fill="none" stroke="#ebebeb" d="M 297.86 42.33 L 297.86 421.04 "/>
<path transform="matrix(1,0,0,-1,0,432)" stroke-width="1.07" stroke-linecap="butt" stroke-linejoin="round" fill="none" stroke="#ebebeb" d="M 379.57 42.33 L 379.57 421.04 "/>
<path transform="matrix(1,0,0,-1,0,432)" d="M 51.6 111.49 C 51.6 112.57 52.48 113.45 53.55 113.45 C 54.63 113.45 55.5 112.57 55.5 111.49 C 55.5 110.42 54.63 109.54 53.55 109.54 C 52.48 109.54 51.6 110.42 51.6 111.49 " fill="#619cff"/>
<path transform="matrix(1,0,0,-1,0,432)" stroke-width=".71" stroke-linecap="round" stroke-linejoin="round" fill="none" stroke="#619cff" d="M 51.6 111.49 C 51.6 112.57 52.48 113.45 53.55 113.45 C 54.63 113.45 55.5 112.57 55.5 111.49 C 55.5 110.42 54.63 109.54 53.55 109.54 C 52.48 109.54 51.6 110.42 51.6 111.49 "/>
<path transform="matrix(1,0,0,-1,0,432)" d="M 406.78 397.64 C 406.78 398.71 407.65 399.59 408.73 399.59 C 409.81 399.59 410.68 398.71 410.68 397.64 C 410.68 396.56 409.81 395.68 408.73 395.68 C 407.65 395.68 406.78 396.56 406.78 397.64 " fill="#00ba38"/>
<path transform="matrix(1,0,0,-1,0,432)" stroke-width=".71" stroke-linecap="round" stroke-linejoin="round" fill="none" stroke="#00ba38" d="M 406.78 397.64 C 406.78 398.71 407.65 399.59 408.73 399.59 C 409.81 399.59 410.68 398.71 410.68 397.64 C 410.68 396.56 409.81 395.68 408.73 395.68 C 407.65 395.68 406.78 396.56 406.78 397.64 "/>
<path transform="matrix(1,0,0,-1,0,432)" d="M 406.78 397.64 C 406.78 398.71 407.65 399.59 408.73 399.59 C 409.81 399.59 410.68 398.71 410.68 397.64 C 410.68 396.56 409.81 395.68 408.73 395.68 C 407.65 395.68 406.78 396.56 406.78 397.64 " fill="#00ba38"/>
<path transform="matrix(1,0,0,-1,0,432)" stroke-width=".71" stroke-linecap="round" stroke-linejoin="round" fill="none" stroke="#00ba38" d="M 406.78 397.64 C 406.78 398.71 407.65 399.59 408.73 399.59 C 409.81 399.59 410.68 398.71 410.68 397.64 C 410.68 396.56 409.81 395.68 408.73 395.68 C 407.65 395.68 406.78 396.56 406.78 397.64 "/>
<path transform="matrix(1,0,0,-1,0,432)" d="M 70.81 310.8 C 70.81 311.87 71.69 312.75 72.77 312.75 C 73.84 312.75 74.72 311.87 74.72 310.8 C 74.72 309.72 73.84 308.84 72.77 308.84 C 71.69 308.84 70.81 309.72 70.81 310.8 " fill="#f8766d"/>
<path transform="matrix(1,0,0,-1,0,432)" stroke-width=".71" stroke-linecap="round" stroke-linejoin="round" fill="none" stroke="#f8766d" d="M 70.81 310.8 C 70.81 311.87 71.69 312.75 72.77 312.75 C 73.84 312.75 74.72 311.87 74.72 310.8 C 74.72 309.72 73.84 308.84 72.77 308.84 C 71.69 308.84 70.81 309.72 70.81 310.8 "/>
<path transform="matrix(1,0,0,-1,0,432)" d="M 70.81 310.8 C 70.81 311.87 71.69 312.75 72.77 312.75 C 73.84 312.75 74.72 311.87 74.72 310.8 C 74.72 309.72 73.84 308.84 72.77 308.84 C 71.69 308.84 70.81 309.72 70.81 310.8 " fill="#f8766d"/>
<path transform="matrix(1,0,0,-1,0,432)" stroke-width=".71" stroke-linecap="round" stroke-linejoin="round" fill="none" stroke="#f8766d" d="M 70.81 310.8 C 70.81 311.87 71.69 312.75 72.77 312.75 C 73.84 312.75 74.72 311.87 74.72 310.8 C 74.72 309.72 73.84 308.84 72.77 308.84 C 71.69 308.84 70.81 309.72 70.81 310.8 "/>
<path transform="matrix(1,0,0,-1,0,432)" d="M 406.78 397.64 C 406.78 398.71 407.65 399.59 408.73 399.59 C 409.81 399.59 410.68 398.71 410.68 397.64 C 410.68 396.56 409.81 395.68 408.73 395.68 C 407.65 395.68 406.78 396.56 406.78 397.64 " fill="#00ba38"/>
<path transform="matrix(1,0,0,-1,0,432)" stroke-width=".71" stroke-linecap="round" stroke-linejoin="round" fill="none" stroke="#00ba38" d="M 406.78 397.64 C 406.78 398.71 407.65 399.59 408.73 399.59 C 409.81 399.59 410.68 398.71 410.68 397.64 C 410.68 396.56 409.81 395.68 408.73 395.68 C 407.65 395.68 406.78 396.56 406.78 397.64 "/>
<path transform="matrix(1,0,0,-1,0,432)" d="M 406.78 397.64 C 406.78 398.71 407.65 399.59 408.73 399.59 C 409.81 399.59 410.68 398.71 410.68 397.64 C 410.68 396.56 409.81 395.68 408.73 395.68 C 407.65 395.68 406.78 396.56 406.78 397.64 " fill="#00ba38"/>
<path transform="matrix(1,0,0,-1,0,432)" stroke-width=".71" stroke-linecap="round" stroke-linejoin="round" fill="none" stroke="#00ba38" d="M 406.78 397.64 C 406.78 398.71 407.65 399.59 408.73 399.59 C 409.81 399.59 410.68 398.71 410.68 397.64 C 410.68 396.56 409.81 395.68 408.73 395.68 C 407.65 395.68 406.78 396.56 406.78 397.64 "/>
<path transform="matrix(1,0,0,-1,0,432)" d="M 70.81 310.8 C 70.81 311.87 71.69 312.75 72.77 312.75 C 73.84 312.75 74.72 311.87 74.72 310.8 C 74.72 309.72 73.84 308.84 72.77 308.84 C 71.69 308.84 70.81 309.72 70.81 310.8 " fill="#f8766d"/>
<path transform="matrix(1,0,0,-1,0,432)" stroke-width=".71" stroke-linecap="round" stroke-linejoin="round" fill="none" stroke="#f8766d" d="M 70.81 310.8 C 70.81 311.87 71.69 312.75 72.77 312.75 C 73.84 312.75 74.72 311.87 74.72 310.8 C 74.72 309.72 73.84 308.84 72.77 308.84 C 71.69 308.84 70.81 309.72 70.81 310.8 "/>
<path transform="matrix(1,0,0,-1,0,432)" d="M 70.81 310.8 C 70.81 311.87 71.69 312.75 72.77 312.75 C 73.84 312.75 74.72 311.87 74.72 310.8 C 74.72 309.72 73.84 308.84 72.77 308.84 C 71.69 308.84 70.81 309.72 70.81 310.8 " fill="#f8766d"/>
<path transform="matrix(1,0,0,-1,0,432)" stroke-width=".71" stroke-linecap="round" stroke-linejoin="round" fill="none" stroke="#f8766d" d="M 70.81 310.8 C 70.81 311.87 71.69 312.75 72.77 312.75 C 73.84 312.75 74.72 311.87 74.72 310.8 C 74.72 309.72 73.84 308.84 72.77 308.84 C 71.69 308.84 70.81 309.72 70.81 310.8 "/>
<path transform="matrix(1,0,0,-1,0,432)" d="M 51.8 59.54 C 51.8 60.62 52.68 61.5 53.76 61.5 C 54.83 61.5 55.71 60.62 55.71 59.54 C 55.71 58.47 54.83 57.59 53.76 57.59 C 52.68 57.59 51.8 58.47 51.8 59.54 " fill="#619cff"/>
<path transform="matrix(1,0,0,-1,0,432)" stroke-width=".71" stroke-linecap="round" stroke-linejoin="round" fill="none" stroke="#619cff" d="M 51.8 59.54 C 51.8 60.62 52.68 61.5 53.76 61.5 C 54.83 61.5 55.71 60.62 55.71 59.54 C 55.71 58.47 54.83 57.59 53.76 57.59 C 52.68 57.59 51.8 58.47 51.8 59.54 "/>
<path transform="matrix(1,0,0,-1,0,432)" d="M 406.78 397.64 C 406.78 398.71 407.65 399.59 408.73 399.59 C 409.81 399.59 410.68 398.71 410.68 397.64 C 410.68 396.56 409.81 395.68 408.73 395.68 C 407.65 395.68 406.78 396.56 406.78 397.64 " fill="#00ba38"/>
<path transform="matrix(1,0,0,-1,0,432)" stroke-width=".71" stroke-linecap="round" stroke-linejoin="round" fill="none" stroke="#00ba38" d="M 406.78 397.64 C 406.78 398.71 407.65 399.59 408.73 399.59 C 409.81 399.59 410.68 398.71 410.68 397.64 C 410.68 396.56 409.81 395.68 408.73 395.68 C 407.65 395.68 406.78 396.56 406.78 397.64 "/>
<path transform="matrix(1,0,0,-1,0,432)" d="M 406.78 397.64 C 406.78 398.71 407.65 399.59 408.73 399.59 C 409.81 399.59 410.68 398.71 410.68 397.64 C 410.68 396.56 409.81 395.68 408.73 395.68 C 407.65 395.68 406.78 396.56 406.78 397.64 " fill="#00ba38"/>
<path transform="matrix(1,0,0,-1,0,432)" stroke-width=".71" stroke-linecap="round" stroke-linejoin="round" fill="none" stroke="#00ba38" d="M 406.78 397.64 C 406.78 398.71 407.65 399.59 408.73 399.59 C 409.81 399.59 410.68 398.71 410.68 397.64 C 410.68 396.56 409.81 395.68 408.73 395.68 C 407.65 395.68 406.78 396.56 406.78 397.64 "/>
<path transform="matrix(1,0,0,-1,0,432)" d="M 406.78 397.64 C 406.78 398.71 407.65 399.59 408.73 399.59 C 409.81 399.59 410.68 398.71 410.68 397.64 C 410.68 396.56 409.81 395.68 408.73 395.68 C 407.65 395.68 406.78 396.56 406.78 397.64 " fill="#00ba38"/>
<path transform="matrix(1,0,0,-1,0,432)" stroke-width=".71" stroke-linecap="round" stroke-linejoin="round" fill="none" stroke="#00ba38" d="M 406.78 397.64 C 406.78 398.71 407.65 399.59 408.73 399.59 C 409.81 399.59 410.68 398.71 410.68 397.64 C 410.68 396.56 409.81 395.68 408.73 395.68 C 407.65 395.68 406.78 396.56 406.78 397.64 "/>
<path transform="matrix(1,0,0,-1,0,432)" d="M 406.78 397.64 C 406.78 398.71 407.65 399.59 408.73 399.59 C 409.81 399.59 410.68 398.71 410.68 397.64 C 410.68 396.56 409.81 395.68 408.73 395.68 C 407.65 395.68 406.78 396.56 406.78 397.64 " fill="#00ba38"/>
<path transform="matrix(1,0,0,-1,0,432)" stroke-width=".71" stroke-linecap="round" stroke-linejoin="round" fill="none" stroke="#00ba38" d="M 406.78 397.64 C 406.78 398.71 407.65 399.59 408.73 399.59 C 409.81 399.59 410.68 398.71 410.68 397.64 C 410.68 396.56 409.81 395.68 408.73 395.68 C 407.65 395.68 406.78 396.56 406.78 397.64 "/>
<path transform="matrix(1,0,0,-1,0,432)" d="M 50.97 130 C 50.97 131.07 51.85 131.95 52.92 131.95 C 54 131.95 54.88 131.07 54.88 130 C 54.88 128.92 54 128.04 52.92 128.04 C 51.85 128.04 50.97 128.92 50.97 130 " fill="#619cff"/>
<path transform="matrix(1,0,0,-1,0,432)" stroke-width=".71" stroke-linecap="round" stroke-linejoin="round" fill="none" stroke="#619cff" d="M 50.97 130 C 50.97 131.07 51.85 131.95 52.92 131.95 C 54 131.95 54.88 131.07 54.88 130 C 54.88 128.92 54 128.04 52.92 128.04 C 51.85 128.04 50.97 128.92 50.97 130 "/>
<path transform="matrix(1,0,0,-1,0,432)" stroke-width="1.07" stroke-linecap="round" stroke-linejoin="round" fill="none" stroke="#000000" d="M 83.53 305.17 L 73.77 310.28 "/>
<path transform="matrix(1,0,0,-1,0,432)" stroke-width="1.07" stroke-linecap="round" stroke-linejoin="round" fill="none" stroke="#000000" d="M 73.33 333.21 L 72.79 311.9 "/>
<text xml:space="preserve" transform="matrix(1 0 -0 1 0 432)" font-size="11" font-family="Helvetica"><tspan y="-116.27" x="41.57 47.686 53.802003 61.744005 68.16801 74.284008 79.784008">ebw&#x2212;ecr</tspan></text>
<text xml:space="preserve" transform="matrix(1 0 -0 1 0 432)" font-size="11" font-family="Helvetica"><tspan y="-300.37" x="85.33 91.446 97.562 105.504 111.928 117.428 123.544">ebw&#x2212;seo</tspan></text>
<text xml:space="preserve" transform="matrix(1 0 -0 1 0 432)" font-size="11" font-family="Helvetica"><tspan y="-330.65" x="75.13 81.245998 87.36199 95.30399 101.728 107.228 110.285999">ebw&#x2212;stm</tspan></text>
<text xml:space="preserve" transform="matrix(1 0 -0 1 0 432)" font-size="11" font-family="Helvetica"><tspan y="-298.09" x="38.73 44.846 50.346 54.009004 60.433004 65.933 72.048999">ecr&#x2212;seo</tspan></text>
<text xml:space="preserve" transform="matrix(1 0 -0 1 0 432)" font-size="11" font-family="Helvetica"><tspan y="-315.5" x="61.91 68.026 73.526 77.189 83.61301 89.11301 92.171009">ecr&#x2212;stm</tspan></text>
<text xml:space="preserve" transform="matrix(1 0 -0 1 0 432)" font-size="11" font-family="Helvetica"><tspan y="-52.33" x="58.5 64.616 70.731998 76.84799 83.271999 89.38799 95.50399">pae&#x2212;pau</tspan></text>
<text xml:space="preserve" transform="matrix(1 0 -0 1 0 432)" font-size="11" font-family="Helvetica"><tspan y="-134.72" x="52.8 58.3 64.416 70.532 76.956 82.456 85.514">seo&#x2212;stm</tspan></text>
<path transform="matrix(1,0,0,-1,0,432)" stroke-width="2.13" stroke-linecap="butt" stroke-linejoin="round" fill="none" stroke="#000000" d="M 52.92 80.12 L 57.42 217.53 L 61.93 246.47 L 66.43 263.62 L 70.94 275.85 L 75.44 285.37 L 79.94 293.15 L 84.45 299.75 L 88.95 305.46 L 93.46 310.5 L 97.96 315.02 L 102.46 319.11 L 106.97 322.84 L 111.47 326.27 L 115.98 329.45 L 120.48 332.41 L 124.98 335.18 L 129.49 337.78 L 133.99 340.24 L 138.5 342.56 L 143 344.76 L 147.5 346.86 L 152.01 348.86 L 156.51 350.77 L 161.01 352.6 L 165.52 354.35 L 170.02 356.04 L 174.53 357.66 L 179.03 359.22 L 183.53 360.73 L 188.04 362.19 L 192.54 363.6 L 197.05 364.96 L 201.55 366.28 L 206.05 367.57 L 210.56 368.81 L 215.06 370.02 L 219.57 371.2 L 224.07 372.35 L 228.57 373.47 L 233.08 374.55 L 237.58 375.62 L 242.09 376.65 L 246.59 377.66 L 251.09 378.65 L 255.6 379.62 L 260.1 380.56 L 264.6 381.49 L 269.11 382.4 L 273.61 383.28 L 278.12 384.15 L 282.62 385 L 287.12 385.84 L 291.63 386.66 L 296.13 387.46 L 300.64 388.25 L 305.14 389.02 L 309.64 389.79 L 314.15 390.53 L 318.65 391.27 L 323.16 391.99 L 327.66 392.7 L 332.16 393.4 L 336.67 394.09 L 341.17 394.77 L 345.68 395.44 L 350.18 396.09 L 354.68 396.74 L 359.19 397.38 L 363.69 398 L 368.19 398.62 L 372.7 399.23 L 377.2 399.84 L 381.71 400.43 L 386.21 401.01 L 390.71 401.59 L 395.22 402.16 L 399.72 402.72 L 404.23 403.28 L 408.73 403.83 "/>
<path transform="matrix(1,0,0,-1,0,432)" d="M 86.95 310.8 L 86.92 311.69 L 86.84 312.58 L 86.7 313.46 L 86.5 314.32 L 86.25 315.18 L 85.95 316.02 L 85.6 316.83 L 85.19 317.63 L 84.74 318.39 L 84.24 319.13 L 83.69 319.83 L 83.11 320.5 L 82.48 321.13 L 81.81 321.72 L 81.11 322.27 L 80.37 322.77 L 79.6 323.22 L 78.81 323.62 L 77.99 323.98 L 77.15 324.28 L 76.3 324.53 L 75.43 324.72 L 74.55 324.86 L 73.66 324.94 L 72.77 324.97 L 71.88 324.94 L 71 324.86 L 70.12 324.72 L 69.25 324.53 L 68.39 324.28 L 67.56 323.98 L 66.74 323.62 L 65.95 323.22 L 65.18 322.77 L 64.44 322.27 L 63.74 321.72 L 63.07 321.13 L 62.44 320.5 L 61.85 319.83 L 61.31 319.13 L 60.81 318.39 L 60.35 317.63 L 59.95 316.83 L 59.6 316.02 L 59.29 315.18 L 59.05 314.32 L 58.85 313.46 L 58.71 312.58 L 58.63 311.69 L 58.6 310.8 L 58.63 309.91 L 58.71 309.02 L 58.85 308.14 L 59.05 307.27 L 59.29 306.42 L 59.6 305.58 L 59.95 304.76 L 60.35 303.97 L 60.81 303.21 L 61.31 302.47 L 61.85 301.77 L 62.44 301.1 L 63.07 300.47 L 63.74 299.88 L 64.44 299.33 L 65.18 298.83 L 65.95 298.38 L 66.74 297.98 L 67.56 297.62 L 68.39 297.32 L 69.25 297.07 L 70.12 296.88 L 71 296.74 L 71.88 296.65 L 72.77 296.63 L 73.66 296.65 L 74.55 296.74 L 75.43 296.88 L 76.3 297.07 L 77.15 297.32 L 77.99 297.62 L 78.81 297.98 L 79.6 298.38 L 80.37 298.83 L 81.11 299.33 L 81.81 299.88 L 82.48 300.47 L 83.11 301.1 L 83.69 301.77 L 84.24 302.47 L 84.74 303.21 L 85.19 303.97 L 85.6 304.76 L 85.95 305.58 L 86.25 306.42 L 86.5 307.27 L 86.7 308.14 L 86.84 309.02 L 86.92 309.91 Z " fill="#f8766d" fill-opacity=".29799999"/>
<path transform="matrix(1,0,0,-1,0,432)" stroke-width="1.07" stroke-linecap="round" stroke-linejoin="round" fill="none" stroke="#000000" d="M 86.95 310.8 L 86.92 311.69 L 86.84 312.58 L 86.7 313.46 L 86.5 314.32 L 86.25 315.18 L 85.95 316.02 L 85.6 316.83 L 85.19 317.63 L 84.74 318.39 L 84.24 319.13 L 83.69 319.83 L 83.11 320.5 L 82.48 321.13 L 81.81 321.72 L 81.11 322.27 L 80.37 322.77 L 79.6 323.22 L 78.81 323.62 L 77.99 323.98 L 77.15 324.28 L 76.3 324.53 L 75.43 324.72 L 74.55 324.86 L 73.66 324.94 L 72.77 324.97 L 71.88 324.94 L 71 324.86 L 70.12 324.72 L 69.25 324.53 L 68.39 324.28 L 67.56 323.98 L 66.74 323.62 L 65.95 323.22 L 65.18 322.77 L 64.44 322.27 L 63.74 321.72 L 63.07 321.13 L 62.44 320.5 L 61.85 319.83 L 61.31 319.13 L 60.81 318.39 L 60.35 317.63 L 59.95 316.83 L 59.6 316.02 L 59.29 315.18 L 59.05 314.32 L 58.85 313.46 L 58.71 312.58 L 58.63 311.69 L 58.6 310.8 L 58.63 309.91 L 58.71 309.02 L 58.85 308.14 L 59.05 307.27 L 59.29 306.42 L 59.6 305.58 L 59.95 304.76 L 60.35 303.97 L 60.81 303.21 L 61.31 302.47 L 61.85 301.77 L 62.44 301.1 L 63.07 300.47 L 63.74 299.88 L 64.44 299.33 L 65.18 298.83 L 65.95 298.38 L 66.74 297.98 L 67.56 297.62 L 68.39 297.32 L 69.25 297.07 L 70.12 296.88 L 71 296.74 L 71.88 296.65 L 72.77 296.63 L 73.66 296.65 L 74.55 296.74 L 75.43 296.88 L 76.3 297.07 L 77.15 297.32 L 77.99 297.62 L 78.81 297.98 L 79.6 298.38 L 80.37 298.83 L 81.11 299.33 L 81.81 299.88 L 82.48 300.47 L 83.11 301.1 L 83.69 301.77 L 84.24 302.47 L 84.74 303.21 L 85.19 303.97 L 85.6 304.76 L 85.95 305.58 L 86.25 306.42 L 86.5 307.27 L 86.7 308.14 L 86.84 309.02 L 86.92 309.91 Z "/>
<path transform="matrix(1,0,0,-1,0,432)" d="M 422.91 397.62 L 422.88 398.51 L 422.8 399.4 L 422.66 400.28 L 422.46 401.15 L 422.22 402 L 421.91 402.84 L 421.56 403.66 L 421.16 404.45 L 420.7 405.22 L 420.2 405.96 L 419.66 406.66 L 419.07 407.33 L 418.44 407.96 L 417.77 408.55 L 417.07 409.09 L 416.33 409.59 L 415.56 410.04 L 414.77 410.45 L 413.95 410.8 L 413.12 411.1 L 412.26 411.35 L 411.39 411.55 L 410.51 411.69 L 409.63 411.77 L 408.74 411.8 L 407.85 411.77 L 406.96 411.69 L 406.08 411.55 L 405.21 411.35 L 404.36 411.1 L 403.52 410.8 L 402.7 410.45 L 401.91 410.04 L 401.14 409.59 L 400.41 409.09 L 399.7 408.55 L 399.03 407.96 L 398.4 407.33 L 397.82 406.66 L 397.27 405.96 L 396.77 405.22 L 396.32 404.45 L 395.91 403.66 L 395.56 402.84 L 395.26 402 L 395.01 401.15 L 394.81 400.28 L 394.67 399.4 L 394.59 398.51 L 394.56 397.62 L 394.59 396.73 L 394.67 395.85 L 394.81 394.97 L 395.01 394.1 L 395.26 393.24 L 395.56 392.41 L 395.91 391.59 L 396.32 390.8 L 396.77 390.03 L 397.27 389.29 L 397.82 388.59 L 398.4 387.92 L 399.03 387.29 L 399.7 386.7 L 400.41 386.16 L 401.14 385.66 L 401.91 385.2 L 402.7 384.8 L 403.52 384.45 L 404.36 384.15 L 405.21 383.9 L 406.08 383.7 L 406.96 383.56 L 407.85 383.48 L 408.74 383.45 L 409.63 383.48 L 410.51 383.56 L 411.39 383.7 L 412.26 383.9 L 413.12 384.15 L 413.95 384.45 L 414.77 384.8 L 415.56 385.2 L 416.33 385.66 L 417.07 386.16 L 417.77 386.7 L 418.44 387.29 L 419.07 387.92 L 419.66 388.59 L 420.2 389.29 L 420.7 390.03 L 421.16 390.8 L 421.56 391.59 L 421.91 392.41 L 422.22 393.24 L 422.46 394.1 L 422.66 394.97 L 422.8 395.85 L 422.88 396.73 Z " fill="#00ba38" fill-opacity=".29799999"/>
<path transform="matrix(1,0,0,-1,0,432)" stroke-width="1.07" stroke-linecap="round" stroke-linejoin="round" fill="none" stroke="#000000" d="M 422.91 397.62 L 422.88 398.51 L 422.8 399.4 L 422.66 400.28 L 422.46 401.15 L 422.22 402 L 421.91 402.84 L 421.56 403.66 L 421.16 404.45 L 420.7 405.22 L 420.2 405.96 L 419.66 406.66 L 419.07 407.33 L 418.44 407.96 L 417.77 408.55 L 417.07 409.09 L 416.33 409.59 L 415.56 410.04 L 414.77 410.45 L 413.95 410.8 L 413.12 411.1 L 412.26 411.35 L 411.39 411.55 L 410.51 411.69 L 409.63 411.77 L 408.74 411.8 L 407.85 411.77 L 406.96 411.69 L 406.08 411.55 L 405.21 411.35 L 404.36 411.1 L 403.52 410.8 L 402.7 410.45 L 401.91 410.04 L 401.14 409.59 L 400.41 409.09 L 399.7 408.55 L 399.03 407.96 L 398.4 407.33 L 397.82 406.66 L 397.27 405.96 L 396.77 405.22 L 396.32 404.45 L 395.91 403.66 L 395.56 402.84 L 395.26 402 L 395.01 401.15 L 394.81 400.28 L 394.67 399.4 L 394.59 398.51 L 394.56 397.62 L 394.59 396.73 L 394.67 395.85 L 394.81 394.97 L 395.01 394.1 L 395.26 393.24 L 395.56 392.41 L 395.91 391.59 L 396.32 390.8 L 396.77 390.03 L 397.27 389.29 L 397.82 388.59 L 398.4 387.92 L 399.03 387.29 L 399.7 386.7 L 400.41 386.16 L 401.14 385.66 L 401.91 385.2 L 402.7 384.8 L 403.52 384.45 L 404.36 384.15 L 405.21 383.9 L 406.08 383.7 L 406.96 383.56 L 407.85 383.48 L 408.74 383.45 L 409.63 383.48 L 410.51 383.56 L 411.39 383.7 L 412.26 383.9 L 413.12 384.15 L 413.95 384.45 L 414.77 384.8 L 415.56 385.2 L 416.33 385.66 L 417.07 386.16 L 417.77 386.7 L 418.44 387.29 L 419.07 387.92 L 419.66 388.59 L 420.2 389.29 L 420.7 390.03 L 421.16 390.8 L 421.56 391.59 L 421.91 392.41 L 422.22 393.24 L 422.46 394.1 L 422.66 394.97 L 422.8 395.85 L 422.88 396.73 Z "/>
<path transform="matrix(1,0,0,-1,0,432)" d="M 56 45.44 L 56.89 45.49 L 59.09 45.7 L 59.98 45.81 L 62.16 46.16 L 63.04 46.33 L 65.2 46.81 L 66.06 47.03 L 68.19 47.65 L 69.03 47.92 L 71.12 48.67 L 71.94 49 L 73.97 49.88 L 74.78 50.26 L 76.75 51.26 L 77.53 51.69 L 79.44 52.82 L 80.19 53.3 L 82.02 54.54 L 82.74 55.06 L 84.49 56.42 L 85.18 56.99 L 86.84 58.45 L 87.49 59.06 L 89.05 60.63 L 89.66 61.28 L 91.12 62.94 L 91.69 63.62 L 93.05 65.37 L 93.57 66.09 L 94.82 67.92 L 95.29 68.68 L 96.42 70.58 L 96.85 71.36 L 97.85 73.33 L 98.23 74.14 L 99.11 76.17 L 99.44 77 L 100.19 79.08 L 100.47 79.93 L 101.08 82.05 L 101.3 82.92 L 101.79 85.08 L 101.95 85.95 L 102.3 88.14 L 102.41 89.02 L 102.62 91.22 L 102.68 92.11 L 102.75 94.33 L 102.75 95.22 L 102.68 97.43 L 102.62 98.32 L 102.41 100.52 L 102.3 101.4 L 101.95 103.59 L 101.79 104.47 L 101.3 106.63 L 101.08 107.49 L 100.47 109.61 L 100.19 110.46 L 99.44 112.54 L 99.11 113.37 L 98.23 115.4 L 97.85 116.21 L 96.85 118.18 L 96.42 118.96 L 95.29 120.87 L 94.82 121.62 L 93.57 123.45 L 93.05 124.17 L 91.69 125.92 L 91.12 126.6 L 89.66 128.27 L 89.05 128.91 L 87.49 130.48 L 86.84 131.09 L 85.18 132.55 L 84.49 133.12 L 82.74 134.48 L 82.02 135 L 80.19 136.25 L 79.44 136.72 L 77.53 137.85 L 76.75 138.28 L 74.78 139.28 L 73.97 139.66 L 71.94 140.54 L 71.12 140.87 L 69.03 141.62 L 68.19 141.89 L 66.06 142.51 L 65.2 142.73 L 63.04 143.22 L 62.16 143.38 L 59.98 143.73 L 59.09 143.84 L 56.89 144.05 L 56 144.1 L 53.79 144.17 L 52.9 144.17 L 50.68 144.1 L 49.8 144.05 L 47.59 143.84 L 46.71 143.73 L 44.52 143.38 L 43.65 143.22 L 41.49 142.73 L 40.63 142.51 L 38.5 141.89 L 37.65 141.62 L 35.57 140.87 L 34.74 140.54 L 32.71 139.66 L 31.91 139.28 L 29.93 138.28 L 29.15 137.85 L 27.25 136.72 L 26.5 136.25 L 24.66 135 L 23.94 134.48 L 22.19 133.12 L 21.51 132.55 L 19.85 131.09 L 19.2 130.48 L 17.63 128.91 L 17.02 128.27 L 15.56 126.6 L 14.99 125.92 L 13.64 124.17 L 13.11 123.45 L 11.87 121.62 L 11.39 120.87 L 10.26 118.96 L 9.84 118.18 L 8.83 116.21 L 8.45 115.4 L 7.57 113.37 L 7.24 112.54 L 6.49 110.46 L 6.22 109.61 L 5.6 107.49 L 5.38 106.63 L 4.9 104.47 L 4.73 103.59 L 4.38 101.4 L 4.27 100.52 L 4.06 98.32 L 4.01 97.43 L 3.94 95.22 L 3.94 94.33 L 4.01 92.11 L 4.06 91.22 L 4.27 89.02 L 4.38 88.14 L 4.73 85.95 L 4.9 85.08 L 5.38 82.92 L 5.6 82.05 L 6.22 79.93 L 6.49 79.08 L 7.24 77 L 7.57 76.17 L 8.45 74.14 L 8.83 73.33 L 9.84 71.36 L 10.26 70.58 L 11.39 68.68 L 11.87 67.92 L 13.11 66.09 L 13.64 65.37 L 14.99 63.62 L 15.56 62.94 L 17.02 61.28 L 17.63 60.63 L 19.2 59.06 L 19.85 58.45 L 21.51 56.99 L 22.19 56.42 L 23.94 55.06 L 24.66 54.54 L 26.5 53.3 L 27.25 52.82 L 29.15 51.69 L 29.93 51.26 L 31.91 50.26 L 32.71 49.88 L 34.74 49 L 35.57 48.67 L 37.65 47.92 L 38.5 47.65 L 40.63 47.03 L 41.49 46.81 L 43.65 46.33 L 44.52 46.16 L 46.71 45.81 L 47.59 45.7 L 49.8 45.49 L 50.68 45.44 L 52.9 45.37 L 53.79 45.37 Z " fill="#619cff" fill-opacity=".29799999"/>
<path transform="matrix(1,0,0,-1,0,432)" stroke-width="1.07" stroke-linecap="round" stroke-linejoin="round" fill="none" stroke="#000000" d="M 56 45.44 L 56.89 45.49 L 59.09 45.7 L 59.98 45.81 L 62.16 46.16 L 63.04 46.33 L 65.2 46.81 L 66.06 47.03 L 68.19 47.65 L 69.03 47.92 L 71.12 48.67 L 71.94 49 L 73.97 49.88 L 74.78 50.26 L 76.75 51.26 L 77.53 51.69 L 79.44 52.82 L 80.19 53.3 L 82.02 54.54 L 82.74 55.06 L 84.49 56.42 L 85.18 56.99 L 86.84 58.45 L 87.49 59.06 L 89.05 60.63 L 89.66 61.28 L 91.12 62.94 L 91.69 63.62 L 93.05 65.37 L 93.57 66.09 L 94.82 67.92 L 95.29 68.68 L 96.42 70.58 L 96.85 71.36 L 97.85 73.33 L 98.23 74.14 L 99.11 76.17 L 99.44 77 L 100.19 79.08 L 100.47 79.93 L 101.08 82.05 L 101.3 82.92 L 101.79 85.08 L 101.95 85.95 L 102.3 88.14 L 102.41 89.02 L 102.62 91.22 L 102.68 92.11 L 102.75 94.33 L 102.75 95.22 L 102.68 97.43 L 102.62 98.32 L 102.41 100.52 L 102.3 101.4 L 101.95 103.59 L 101.79 104.47 L 101.3 106.63 L 101.08 107.49 L 100.47 109.61 L 100.19 110.46 L 99.44 112.54 L 99.11 113.37 L 98.23 115.4 L 97.85 116.21 L 96.85 118.18 L 96.42 118.96 L 95.29 120.87 L 94.82 121.62 L 93.57 123.45 L 93.05 124.17 L 91.69 125.92 L 91.12 126.6 L 89.66 128.27 L 89.05 128.91 L 87.49 130.48 L 86.84 131.09 L 85.18 132.55 L 84.49 133.12 L 82.74 134.48 L 82.02 135 L 80.19 136.25 L 79.44 136.72 L 77.53 137.85 L 76.75 138.28 L 74.78 139.28 L 73.97 139.66 L 71.94 140.54 L 71.12 140.87 L 69.03 141.62 L 68.19 141.89 L 66.06 142.51 L 65.2 142.73 L 63.04 143.22 L 62.16 143.38 L 59.98 143.73 L 59.09 143.84 L 56.89 144.05 L 56 144.1 L 53.79 144.17 L 52.9 144.17 L 50.68 144.1 L 49.8 144.05 L 47.59 143.84 L 46.71 143.73 L 44.52 143.38 L 43.65 143.22 L 41.49 142.73 L 40.63 142.51 L 38.5 141.89 L 37.65 141.62 L 35.57 140.87 L 34.74 140.54 L 32.71 139.66 L 31.91 139.28 L 29.93 138.28 L 29.15 137.85 L 27.25 136.72 L 26.5 136.25 L 24.66 135 L 23.94 134.48 L 22.19 133.12 L 21.51 132.55 L 19.85 131.09 L 19.2 130.48 L 17.63 128.91 L 17.02 128.27 L 15.56 126.6 L 14.99 125.92 L 13.64 124.17 L 13.11 123.45 L 11.87 121.62 L 11.39 120.87 L 10.26 118.96 L 9.84 118.18 L 8.83 116.21 L 8.45 115.4 L 7.57 113.37 L 7.24 112.54 L 6.49 110.46 L 6.22 109.61 L 5.6 107.49 L 5.38 106.63 L 4.9 104.47 L 4.73 103.59 L 4.38 101.4 L 4.27 100.52 L 4.06 98.32 L 4.01 97.43 L 3.94 95.22 L 3.94 94.33 L 4.01 92.11 L 4.06 91.22 L 4.27 89.02 L 4.38 88.14 L 4.73 85.95 L 4.9 85.08 L 5.38 82.92 L 5.6 82.05 L 6.22 79.93 L 6.49 79.08 L 7.24 77 L 7.57 76.17 L 8.45 74.14 L 8.83 73.33 L 9.84 71.36 L 10.26 70.58 L 11.39 68.68 L 11.87 67.92 L 13.11 66.09 L 13.64 65.37 L 14.99 63.62 L 15.56 62.94 L 17.02 61.28 L 17.63 60.63 L 19.2 59.06 L 19.85 58.45 L 21.51 56.99 L 22.19 56.42 L 23.94 55.06 L 24.66 54.54 L 26.5 53.3 L 27.25 52.82 L 29.15 51.69 L 29.93 51.26 L 31.91 50.26 L 32.71 49.88 L 34.74 49 L 35.57 48.67 L 37.65 47.92 L 38.5 47.65 L 40.63 47.03 L 41.49 46.81 L 43.65 46.33 L 44.52 46.16 L 46.71 45.81 L 47.59 45.7 L 49.8 45.49 L 50.68 45.44 L 52.9 45.37 L 53.79 45.37 Z "/>
<path transform="matrix(1,0,0,-1,0,432)" d="M 40.8 358.99 L 348.38999 358.99 L 348.38999 382.33 L 40.8 382.33 Z " fill="#ffffff"/>
<text xml:space="preserve" transform="matrix(1 0 -0 1 0 432)" font-size="12" font-family="Helvetica" font-weight="bold"><tspan y="-367.47" x="46.47 49.806 57.138 61.134 67.806 72.294 78.966 86.298007 92.97 99.642 102.978 106.974 110.31 116.981998 120.31799 126.98999 134.32199 144.98999 152.32199 158.99399 163.66199 166.99799 173.66999 181.00199 188.33399 191.66999 195.66599 202.99799 206.99399 214.32599 220.99799 225.66599 229.00199 232.99799 240.32999 247.00199 254.33399 257.66999 265.67399 272.34599 279.01799 286.34999 293.68199 301.01399 311.68199 319.01399 326.34599 333.01799 339.68998">Interspecific comparison (other than Pseudomonas)</tspan></text>
</g>
<clipPath id="cp3">
<path transform="matrix(1,0,0,-1,0,432)" d="M 35.13 42.33 L 426.52003 42.33 L 426.52003 421.03999 L 35.13 421.03999 Z "/>
</clipPath>
<g clip-path="url(#cp3)">
</g>
<clipPath id="cp4">
<path transform="matrix(1,0,0,-1,0,432)" d="M 35.13 42.33 L 426.52003 42.33 L 426.52003 421.03999 L 35.13 421.03999 Z "/>
</clipPath>
<g clip-path="url(#cp4)">
</g>
<clipPath id="cp5">
<path transform="matrix(1,0,0,-1,0,432)" d="M 35.13 42.33 L 426.52003 42.33 L 426.52003 421.03999 L 35.13 421.03999 Z "/>
</clipPath>
<g clip-path="url(#cp5)">
<path transform="matrix(1,0,0,-1,0,432)" d="M 147.76 295.96 L 420.84999 295.96 L 420.84999 319.3 L 147.76 319.3 Z " fill="#ffffff"/>
<text xml:space="preserve" transform="matrix(1 0 -0 1 0 432)" font-size="12" font-family="Helvetica" font-weight="bold"><tspan y="-304.45" x="153.43 156.76599 164.09799 168.094 174.76599 179.254 185.926 193.258 199.93 206.60199 209.93799 213.93399 217.26999 223.94199 227.27799 233.94998 241.28199 251.94998 259.28199 265.95399 270.62199 273.95799 280.62998 287.96199 295.29399 298.62998 302.62599 311.96199 315.29798 319.29399 326.62599 329.96199 337.96598 344.63798 351.30998 358.64198 365.97398 373.30598 383.97398 391.30598 398.63798 405.30998 411.98197">Interspecific comparison (with Pseudomonas)</tspan></text>
</g>
<clipPath id="cp6">
<path transform="matrix(1,0,0,-1,0,432)" d="M 35.13 42.33 L 426.52003 42.33 L 426.52003 421.03999 L 35.13 421.03999 Z "/>
</clipPath>
<g clip-path="url(#cp6)">
</g>
<clipPath id="cp7">
<path transform="matrix(1,0,0,-1,0,432)" d="M 35.13 42.33 L 426.52003 42.33 L 426.52003 421.03999 L 35.13 421.03999 Z "/>
</clipPath>
<g clip-path="url(#cp7)">
</g>
<clipPath id="cp8">
<path transform="matrix(1,0,0,-1,0,432)" d="M 35.13 42.33 L 426.52003 42.33 L 426.52003 421.03999 L 35.13 421.03999 Z "/>
</clipPath>
<g clip-path="url(#cp8)">
<path transform="matrix(1,0,0,-1,0,432)" d="M 40.8 178.19 L 193.14 178.19 L 193.14 201.53 L 40.8 201.53 Z " fill="#ffffff"/>
<text xml:space="preserve" transform="matrix(1 0 -0 1 0 432)" font-size="12" font-family="Helvetica" font-weight="bold"><tspan y="-186.68" x="46.47 49.806 57.138 61.134 65.802 72.474 79.145999 86.478 93.149997 99.82199 103.15799 107.15399 110.48999 117.16199 120.497989 127.16998 134.50199 145.16999 152.50199 159.17398 163.84198 167.17798 173.84998 181.18198">Intraspecific comparison</tspan></text>
</g>
<clipPath id="cp9">
<path transform="matrix(1,0,0,-1,0,432)" d="M 35.13 42.33 L 426.52003 42.33 L 426.52003 421.03999 L 35.13 421.03999 Z "/>
</clipPath>
<g clip-path="url(#cp9)">
</g>
<clipPath id="cp10">
<path transform="matrix(1,0,0,-1,0,432)" d="M 35.13 42.33 L 426.52003 42.33 L 426.52003 421.03999 L 35.13 421.03999 Z "/>
</clipPath>
<g clip-path="url(#cp10)">
</g>
<clipPath id="cp11">
<path transform="matrix(1,0,0,-1,0,432)" d="M 35.13 42.33 L 426.52003 42.33 L 426.52003 421.03999 L 35.13 421.03999 Z "/>
</clipPath>
<g clip-path="url(#cp11)">
<path transform="matrix(1,0,0,-1,0,432)" stroke-width="1.07" stroke-linecap="round" stroke-linejoin="round" fill="none" stroke="#000000" d="M 348.39 358.99 L 40.8 358.99 L 40.8 347.15 L 59.17 328.78 "/>
<path transform="matrix(1,0,0,-1,0,432)" stroke-width="1.07" stroke-linecap="round" stroke-linejoin="round" fill="none" stroke="#000000" d="M 147.76 319.3 L 420.85 319.3 L 410.67 329.49 L 410.67 375.08 "/>
<path transform="matrix(1,0,0,-1,0,432)" stroke-width="1.07" stroke-linecap="round" stroke-linejoin="round" fill="none" stroke="#000000" d="M 193.14 178.19 L 40.8 178.19 L 46.27 172.72 L 46.27 152.16 "/>
<path transform="matrix(1,0,0,-1,0,432)" stroke-width="2.13" stroke-linecap="round" stroke-linejoin="round" fill="none" stroke="#000000" d="M 35.13 42.33 L 426.52003 42.33 L 426.52003 421.03999 L 35.13 421.03999 Z "/>
</g>
<path transform="matrix(1,0,0,-1,0,432)" stroke-width="1.07" stroke-linecap="butt" stroke-linejoin="round" fill="none" stroke="#000000" d="M 35.13 42.33 L 35.13 421.04 "/>
<text fill="#4d4d4d" xml:space="preserve" transform="matrix(1 0 -0 1 0 432)" font-size="9" font-family="Helvetica"><tspan y="-148.56" x="25.19">6</tspan></text>
<text fill="#4d4d4d" xml:space="preserve" transform="matrix(1 0 -0 1 0 432)" font-size="9" font-family="Helvetica"><tspan y="-269.9" x="25.19">7</tspan></text>
<text fill="#4d4d4d" xml:space="preserve" transform="matrix(1 0 -0 1 0 432)" font-size="9" font-family="Helvetica"><tspan y="-391.24" x="25.19">8</tspan></text>
<path transform="matrix(1,0,0,-1,0,432)" stroke-width="1.07" stroke-linecap="butt" stroke-linejoin="round" fill="none" stroke="#000000" d="M 35.13 42.33 L 426.52 42.33 "/>
<text fill="#4d4d4d" xml:space="preserve" transform="matrix(1 0 -0 1 0 432)" font-size="9" font-family="Helvetica"><tspan y="-30.94" x="50.23">0</tspan></text>
<text fill="#4d4d4d" xml:space="preserve" transform="matrix(1 0 -0 1 0 432)" font-size="9" font-family="Helvetica"><tspan y="-30.94" x="126.93 131.934 136.938">500</tspan></text>
<text fill="#4d4d4d" xml:space="preserve" transform="matrix(1 0 -0 1 0 432)" font-size="9" font-family="Helvetica"><tspan y="-30.94" x="206.14 211.144 216.148 221.152">1000</tspan></text>
<text fill="#4d4d4d" xml:space="preserve" transform="matrix(1 0 -0 1 0 432)" font-size="9" font-family="Helvetica"><tspan y="-30.94" x="287.85 292.854 297.858 302.862">1500</tspan></text>
<text fill="#4d4d4d" xml:space="preserve" transform="matrix(1 0 -0 1 0 432)" font-size="9" font-family="Helvetica"><tspan y="-30.94" x="369.56 374.564 379.568 384.572">2000</tspan></text>
<text xml:space="preserve" transform="matrix(1 0 -0 1 0 432)" font-size="11" font-family="Helvetica"><tspan y="-13.76" x="143.47 150.807 156.593 162.093 164.535 170.651 176.767 182.883 188.999 195.11499 198.17299 200.61499 206.11499 209.17299 217.11499 219.55699 225.05699 228.11499 234.23099 240.34699 245.84699 251.96298 255.02098 264.184 272.12599 280.06797 287.40498 290.46299 294.12599 303.12397 308.40397 314.51997">Phylogenetic Distance MRCA (mya)</tspan></text>
<text xml:space="preserve" transform="matrix(0 -1 1 0 0 432)" font-size="11" font-family="Helvetica"><tspan y="19.41" x="120.33 128.272 134.388 140.504 149.66699 152.109 157.609 163.72499 166.16699 169.22499 176.122 182.23799 185.29599 189.12398 191.56598 197.06598 200.12398 202.56598 208.06598 211.12398 219.06598 221.50798 227.00798 230.06598 236.18198 242.29798 247.79798 253.91397 256.972 260.03 263.693 269.809 278.972 282.03 289.972 296.08799 302.20399 308.31999 311.98298 318.09898 324.21498 327.76799 333.88398">Chemical Patristic Distance from Dendrogram</tspan></text>
<clipPath id="cp12">
<path transform="matrix(1,0,0,-1,0,432)" d="M 432 5.48 L 858.52 5.48 L 858.52 426.52003 L 432 426.52003 Z "/>
</clipPath>
<g clip-path="url(#cp12)">
</g>
<clipPath id="cp13">
<path transform="matrix(1,0,0,-1,0,432)" d="M 461.65 42.33 L 853.04006 42.33 L 853.04006 421.03999 L 461.65 421.03999 Z "/>
</clipPath>
<g clip-path="url(#cp13)">
<path transform="matrix(1,0,0,-1,0,432)" stroke-width=".53" stroke-linecap="butt" stroke-linejoin="round" fill="none" stroke="#ebebeb" d="M 461.65 91.12 L 853.04 91.12 "/>
<path transform="matrix(1,0,0,-1,0,432)" stroke-width=".53" stroke-linecap="butt" stroke-linejoin="round" fill="none" stroke="#ebebeb" d="M 461.65 212.46 L 853.04 212.46 "/>
<path transform="matrix(1,0,0,-1,0,432)" stroke-width=".53" stroke-linecap="butt" stroke-linejoin="round" fill="none" stroke="#ebebeb" d="M 461.65 333.8 L 853.04 333.8 "/>
<path transform="matrix(1,0,0,-1,0,432)" stroke-width=".53" stroke-linecap="butt" stroke-linejoin="round" fill="none" stroke="#ebebeb" d="M 526.06 42.33 L 526.06 421.04 "/>
<path transform="matrix(1,0,0,-1,0,432)" stroke-width=".53" stroke-linecap="butt" stroke-linejoin="round" fill="none" stroke="#ebebeb" d="M 635 42.33 L 635 421.04 "/>
<path transform="matrix(1,0,0,-1,0,432)" stroke-width=".53" stroke-linecap="butt" stroke-linejoin="round" fill="none" stroke="#ebebeb" d="M 743.94 42.33 L 743.94 421.04 "/>
<path transform="matrix(1,0,0,-1,0,432)" stroke-width=".53" stroke-linecap="butt" stroke-linejoin="round" fill="none" stroke="#ebebeb" d="M 852.88 42.33 L 852.88 421.04 "/>
<path transform="matrix(1,0,0,-1,0,432)" stroke-width="1.07" stroke-linecap="butt" stroke-linejoin="round" fill="none" stroke="#ebebeb" d="M 461.65 151.79 L 853.04 151.79 "/>
<path transform="matrix(1,0,0,-1,0,432)" stroke-width="1.07" stroke-linecap="butt" stroke-linejoin="round" fill="none" stroke="#ebebeb" d="M 461.65 273.13 L 853.04 273.13 "/>
<path transform="matrix(1,0,0,-1,0,432)" stroke-width="1.07" stroke-linecap="butt" stroke-linejoin="round" fill="none" stroke="#ebebeb" d="M 461.65 394.48 L 853.04 394.48 "/>
<path transform="matrix(1,0,0,-1,0,432)" stroke-width="1.07" stroke-linecap="butt" stroke-linejoin="round" fill="none" stroke="#ebebeb" d="M 471.58 42.33 L 471.58 421.04 "/>
<path transform="matrix(1,0,0,-1,0,432)" stroke-width="1.07" stroke-linecap="butt" stroke-linejoin="round" fill="none" stroke="#ebebeb" d="M 580.53 42.33 L 580.53 421.04 "/>
<path transform="matrix(1,0,0,-1,0,432)" stroke-width="1.07" stroke-linecap="butt" stroke-linejoin="round" fill="none" stroke="#ebebeb" d="M 689.47 42.33 L 689.47 421.04 "/>
<path transform="matrix(1,0,0,-1,0,432)" stroke-width="1.07" stroke-linecap="butt" stroke-linejoin="round" fill="none" stroke="#ebebeb" d="M 798.41 42.33 L 798.41 421.04 "/>
<path transform="matrix(1,0,0,-1,0,432)" d="M 546.09 111.49 C 546.09 112.57 546.97 113.45 548.04 113.45 C 549.12 113.45 550 112.57 550 111.49 C 550 110.42 549.12 109.54 548.04 109.54 C 546.97 109.54 546.09 110.42 546.09 111.49 " fill="#619cff"/>
<path transform="matrix(1,0,0,-1,0,432)" stroke-width=".71" stroke-linecap="round" stroke-linejoin="round" fill="none" stroke="#619cff" d="M 546.09 111.49 C 546.09 112.57 546.97 113.45 548.04 113.45 C 549.12 113.45 550 112.57 550 111.49 C 550 110.42 549.12 109.54 548.04 109.54 C 546.97 109.54 546.09 110.42 546.09 111.49 "/>
<path transform="matrix(1,0,0,-1,0,432)" d="M 833.3 397.64 C 833.3 398.71 834.18 399.59 835.25 399.59 C 836.33 399.59 837.21 398.71 837.21 397.64 C 837.21 396.56 836.33 395.68 835.25 395.68 C 834.18 395.68 833.3 396.56 833.3 397.64 " fill="#00ba38"/>
<path transform="matrix(1,0,0,-1,0,432)" stroke-width=".71" stroke-linecap="round" stroke-linejoin="round" fill="none" stroke="#00ba38" d="M 833.3 397.64 C 833.3 398.71 834.18 399.59 835.25 399.59 C 836.33 399.59 837.21 398.71 837.21 397.64 C 837.21 396.56 836.33 395.68 835.25 395.68 C 834.18 395.68 833.3 396.56 833.3 397.64 "/>
<path transform="matrix(1,0,0,-1,0,432)" d="M 833.3 397.64 C 833.3 398.71 834.18 399.59 835.25 399.59 C 836.33 399.59 837.21 398.71 837.21 397.64 C 837.21 396.56 836.33 395.68 835.25 395.68 C 834.18 395.68 833.3 396.56 833.3 397.64 " fill="#00ba38"/>
<path transform="matrix(1,0,0,-1,0,432)" stroke-width=".71" stroke-linecap="round" stroke-linejoin="round" fill="none" stroke="#00ba38" d="M 833.3 397.64 C 833.3 398.71 834.18 399.59 835.25 399.59 C 836.33 399.59 837.21 398.71 837.21 397.64 C 837.21 396.56 836.33 395.68 835.25 395.68 C 834.18 395.68 833.3 396.56 833.3 397.64 "/>
<path transform="matrix(1,0,0,-1,0,432)" d="M 697.16 310.8 C 697.16 311.87 698.04 312.75 699.12 312.75 C 700.19 312.75 701.07 311.87 701.07 310.8 C 701.07 309.72 700.19 308.84 699.12 308.84 C 698.04 308.84 697.16 309.72 697.16 310.8 " fill="#f8766d"/>
<path transform="matrix(1,0,0,-1,0,432)" stroke-width=".71" stroke-linecap="round" stroke-linejoin="round" fill="none" stroke="#f8766d" d="M 697.16 310.8 C 697.16 311.87 698.04 312.75 699.12 312.75 C 700.19 312.75 701.07 311.87 701.07 310.8 C 701.07 309.72 700.19 308.84 699.12 308.84 C 698.04 308.84 697.16 309.72 697.16 310.8 "/>
<path transform="matrix(1,0,0,-1,0,432)" d="M 697.16 310.8 C 697.16 311.87 698.04 312.75 699.12 312.75 C 700.19 312.75 701.07 311.87 701.07 310.8 C 701.07 309.72 700.19 308.84 699.12 308.84 C 698.04 308.84 697.16 309.72 697.16 310.8 " fill="#f8766d"/>
<path transform="matrix(1,0,0,-1,0,432)" stroke-width=".71" stroke-linecap="round" stroke-linejoin="round" fill="none" stroke="#f8766d" d="M 697.16 310.8 C 697.16 311.87 698.04 312.75 699.12 312.75 C 700.19 312.75 701.07 311.87 701.07 310.8 C 701.07 309.72 700.19 308.84 699.12 308.84 C 698.04 308.84 697.16 309.72 697.16 310.8 "/>
<path transform="matrix(1,0,0,-1,0,432)" d="M 833.3 397.64 C 833.3 398.71 834.18 399.59 835.25 399.59 C 836.33 399.59 837.21 398.71 837.21 397.64 C 837.21 396.56 836.33 395.68 835.25 395.68 C 834.18 395.68 833.3 396.56 833.3 397.64 " fill="#00ba38"/>
<path transform="matrix(1,0,0,-1,0,432)" stroke-width=".71" stroke-linecap="round" stroke-linejoin="round" fill="none" stroke="#00ba38" d="M 833.3 397.64 C 833.3 398.71 834.18 399.59 835.25 399.59 C 836.33 399.59 837.21 398.71 837.21 397.64 C 837.21 396.56 836.33 395.68 835.25 395.68 C 834.18 395.68 833.3 396.56 833.3 397.64 "/>
<path transform="matrix(1,0,0,-1,0,432)" d="M 833.3 397.64 C 833.3 398.71 834.18 399.59 835.25 399.59 C 836.33 399.59 837.21 398.71 837.21 397.64 C 837.21 396.56 836.33 395.68 835.25 395.68 C 834.18 395.68 833.3 396.56 833.3 397.64 " fill="#00ba38"/>
<path transform="matrix(1,0,0,-1,0,432)" stroke-width=".71" stroke-linecap="round" stroke-linejoin="round" fill="none" stroke="#00ba38" d="M 833.3 397.64 C 833.3 398.71 834.18 399.59 835.25 399.59 C 836.33 399.59 837.21 398.71 837.21 397.64 C 837.21 396.56 836.33 395.68 835.25 395.68 C 834.18 395.68 833.3 396.56 833.3 397.64 "/>
<path transform="matrix(1,0,0,-1,0,432)" d="M 697.16 310.8 C 697.16 311.87 698.04 312.75 699.12 312.75 C 700.19 312.75 701.07 311.87 701.07 310.8 C 701.07 309.72 700.19 308.84 699.12 308.84 C 698.04 308.84 697.16 309.72 697.16 310.8 " fill="#f8766d"/>
<path transform="matrix(1,0,0,-1,0,432)" stroke-width=".71" stroke-linecap="round" stroke-linejoin="round" fill="none" stroke="#f8766d" d="M 697.16 310.8 C 697.16 311.87 698.04 312.75 699.12 312.75 C 700.19 312.75 701.07 311.87 701.07 310.8 C 701.07 309.72 700.19 308.84 699.12 308.84 C 698.04 308.84 697.16 309.72 697.16 310.8 "/>
<path transform="matrix(1,0,0,-1,0,432)" d="M 697.16 310.8 C 697.16 311.87 698.04 312.75 699.12 312.75 C 700.19 312.75 701.07 311.87 701.07 310.8 C 701.07 309.72 700.19 308.84 699.12 308.84 C 698.04 308.84 697.16 309.72 697.16 310.8 " fill="#f8766d"/>
<path transform="matrix(1,0,0,-1,0,432)" stroke-width=".71" stroke-linecap="round" stroke-linejoin="round" fill="none" stroke="#f8766d" d="M 697.16 310.8 C 697.16 311.87 698.04 312.75 699.12 312.75 C 700.19 312.75 701.07 311.87 701.07 310.8 C 701.07 309.72 700.19 308.84 699.12 308.84 C 698.04 308.84 697.16 309.72 697.16 310.8 "/>
<path transform="matrix(1,0,0,-1,0,432)" d="M 556.67 59.54 C 556.67 60.62 557.55 61.5 558.62 61.5 C 559.7 61.5 560.58 60.62 560.58 59.54 C 560.58 58.47 559.7 57.59 558.62 57.59 C 557.55 57.59 556.67 58.47 556.67 59.54 " fill="#619cff"/>
<path transform="matrix(1,0,0,-1,0,432)" stroke-width=".71" stroke-linecap="round" stroke-linejoin="round" fill="none" stroke="#619cff" d="M 556.67 59.54 C 556.67 60.62 557.55 61.5 558.62 61.5 C 559.7 61.5 560.58 60.62 560.58 59.54 C 560.58 58.47 559.7 57.59 558.62 57.59 C 557.55 57.59 556.67 58.47 556.67 59.54 "/>
<path transform="matrix(1,0,0,-1,0,432)" d="M 833.3 397.64 C 833.3 398.71 834.18 399.59 835.25 399.59 C 836.33 399.59 837.21 398.71 837.21 397.64 C 837.21 396.56 836.33 395.68 835.25 395.68 C 834.18 395.68 833.3 396.56 833.3 397.64 " fill="#00ba38"/>
<path transform="matrix(1,0,0,-1,0,432)" stroke-width=".71" stroke-linecap="round" stroke-linejoin="round" fill="none" stroke="#00ba38" d="M 833.3 397.64 C 833.3 398.71 834.18 399.59 835.25 399.59 C 836.33 399.59 837.21 398.71 837.21 397.64 C 837.21 396.56 836.33 395.68 835.25 395.68 C 834.18 395.68 833.3 396.56 833.3 397.64 "/>
<path transform="matrix(1,0,0,-1,0,432)" d="M 833.3 397.64 C 833.3 398.71 834.18 399.59 835.25 399.59 C 836.33 399.59 837.21 398.71 837.21 397.64 C 837.21 396.56 836.33 395.68 835.25 395.68 C 834.18 395.68 833.3 396.56 833.3 397.64 " fill="#00ba38"/>
<path transform="matrix(1,0,0,-1,0,432)" stroke-width=".71" stroke-linecap="round" stroke-linejoin="round" fill="none" stroke="#00ba38" d="M 833.3 397.64 C 833.3 398.71 834.18 399.59 835.25 399.59 C 836.33 399.59 837.21 398.71 837.21 397.64 C 837.21 396.56 836.33 395.68 835.25 395.68 C 834.18 395.68 833.3 396.56 833.3 397.64 "/>
<path transform="matrix(1,0,0,-1,0,432)" d="M 833.3 397.64 C 833.3 398.71 834.18 399.59 835.25 399.59 C 836.33 399.59 837.21 398.71 837.21 397.64 C 837.21 396.56 836.33 395.68 835.25 395.68 C 834.18 395.68 833.3 396.56 833.3 397.64 " fill="#00ba38"/>
<path transform="matrix(1,0,0,-1,0,432)" stroke-width=".71" stroke-linecap="round" stroke-linejoin="round" fill="none" stroke="#00ba38" d="M 833.3 397.64 C 833.3 398.71 834.18 399.59 835.25 399.59 C 836.33 399.59 837.21 398.71 837.21 397.64 C 837.21 396.56 836.33 395.68 835.25 395.68 C 834.18 395.68 833.3 396.56 833.3 397.64 "/>
<path transform="matrix(1,0,0,-1,0,432)" d="M 833.3 397.64 C 833.3 398.71 834.18 399.59 835.25 399.59 C 836.33 399.59 837.21 398.71 837.21 397.64 C 837.21 396.56 836.33 395.68 835.25 395.68 C 834.18 395.68 833.3 396.56 833.3 397.64 " fill="#00ba38"/>
<path transform="matrix(1,0,0,-1,0,432)" stroke-width=".71" stroke-linecap="round" stroke-linejoin="round" fill="none" stroke="#00ba38" d="M 833.3 397.64 C 833.3 398.71 834.18 399.59 835.25 399.59 C 836.33 399.59 837.21 398.71 837.21 397.64 C 837.21 396.56 836.33 395.68 835.25 395.68 C 834.18 395.68 833.3 396.56 833.3 397.64 "/>
<path transform="matrix(1,0,0,-1,0,432)" d="M 477.49 130 C 477.49 131.07 478.37 131.95 479.44 131.95 C 480.52 131.95 481.4 131.07 481.4 130 C 481.4 128.92 480.52 128.04 479.44 128.04 C 478.37 128.04 477.49 128.92 477.49 130 " fill="#619cff"/>
<path transform="matrix(1,0,0,-1,0,432)" stroke-width=".71" stroke-linecap="round" stroke-linejoin="round" fill="none" stroke="#619cff" d="M 477.49 130 C 477.49 131.07 478.37 131.95 479.44 131.95 C 480.52 131.95 481.4 131.07 481.4 130 C 481.4 128.92 480.52 128.04 479.44 128.04 C 478.37 128.04 477.49 128.92 477.49 130 "/>
<path transform="matrix(1,0,0,-1,0,432)" stroke-width="1.07" stroke-linecap="round" stroke-linejoin="round" fill="none" stroke="#000000" d="M 698.56 288.38 L 699.09 309.7 "/>
<path transform="matrix(1,0,0,-1,0,432)" stroke-width="1.07" stroke-linecap="round" stroke-linejoin="round" fill="none" stroke="#000000" d="M 699.67 333.22 L 699.15 311.9 "/>
<text xml:space="preserve" transform="matrix(1 0 -0 1 0 432)" font-size="11" font-family="Helvetica"><tspan y="-98.8" x="518.08 524.19607 530.3121 538.2541 544.6781 550.7941 556.2941">ebw&#x2212;ecr</tspan></text>
<text xml:space="preserve" transform="matrix(1 0 -0 1 0 432)" font-size="11" font-family="Helvetica"><tspan y="-283.04" x="652.43 658.546 664.66207 672.60409 679.0281 684.5281 690.6441">ebw&#x2212;seo</tspan></text>
<text xml:space="preserve" transform="matrix(1 0 -0 1 0 432)" font-size="11" font-family="Helvetica"><tspan y="-330.66" x="701.47 707.586 713.702 721.64407 728.06808 733.56808 736.62606">ebw&#x2212;stm</tspan></text>
<text xml:space="preserve" transform="matrix(1 0 -0 1 0 432)" font-size="11" font-family="Helvetica"><tspan y="-298.21" x="670.56 676.676 682.176 685.83908 692.26309 697.76309 703.8791">ecr&#x2212;seo</tspan></text>
<text xml:space="preserve" transform="matrix(1 0 -0 1 0 432)" font-size="11" font-family="Helvetica"><tspan y="-315.51" x="688.29 694.406 699.906 703.56906 709.99307 715.49307 718.551">ecr&#x2212;stm</tspan></text>
<text xml:space="preserve" transform="matrix(1 0 -0 1 0 432)" font-size="11" font-family="Helvetica"><tspan y="-64.25" x="546.06 552.176 558.29208 564.4081 570.8321 576.9481 583.06417">pae&#x2212;pau</tspan></text>
<text xml:space="preserve" transform="matrix(1 0 -0 1 0 432)" font-size="11" font-family="Helvetica"><tspan y="-123.97" x="484.08 489.58 495.69599 501.81199 508.236 513.73599 516.79397">seo&#x2212;stm</tspan></text>
<path transform="matrix(1,0,0,-1,0,432)" stroke-width="2.13" stroke-linecap="butt" stroke-linejoin="round" fill="none" stroke="#000000" d="M 479.44 80.12 L 483.95 84.21 L 488.45 88.31 L 492.95 92.41 L 497.46 96.51 L 501.96 100.6 L 506.46 104.7 L 510.97 108.8 L 515.47 112.9 L 519.98 116.99 L 524.48 121.09 L 528.98 125.19 L 533.49 129.29 L 537.99 133.38 L 542.5 137.48 L 547 141.58 L 551.5 145.68 L 556.01 149.78 L 560.51 153.87 L 565.02 157.97 L 569.52 162.07 L 574.02 166.17 L 578.53 170.26 L 583.03 174.36 L 587.54 178.46 L 592.04 182.56 L 596.54 186.65 L 601.05 190.75 L 605.55 194.85 L 610.05 198.95 L 614.56 203.04 L 619.06 207.14 L 623.57 211.24 L 628.07 215.34 L 632.57 219.43 L 637.08 223.53 L 641.58 227.63 L 646.09 231.73 L 650.59 235.82 L 655.09 239.92 L 659.6 244.02 L 664.1 248.12 L 668.61 252.22 L 673.11 256.31 L 677.61 260.41 L 682.12 264.51 L 686.62 268.61 L 691.13 272.7 L 695.63 276.8 L 700.13 280.9 L 704.64 285 L 709.14 289.09 L 713.64 293.19 L 718.15 297.29 L 722.65 301.39 L 727.16 305.48 L 731.66 309.58 L 736.16 313.68 L 740.67 317.78 L 745.17 321.87 L 749.68 325.97 L 754.18 330.07 L 758.68 334.17 L 763.19 338.27 L 767.69 342.36 L 772.2 346.46 L 776.7 350.56 L 781.2 354.66 L 785.71 358.75 L 790.21 362.85 L 794.72 366.95 L 799.22 371.05 L 803.72 375.14 L 808.23 379.24 L 812.73 383.34 L 817.23 387.44 L 821.74 391.53 L 826.24 395.63 L 830.75 399.73 L 835.25 403.83 "/>
<path transform="matrix(1,0,0,-1,0,432)" stroke-width="1.07" stroke-linecap="round" stroke-linejoin="round" fill="none" stroke="#000000" d="M 466.6 42.33 L 466.6 45.16 "/>
<path transform="matrix(1,0,0,-1,0,432)" stroke-width="1.07" stroke-linecap="round" stroke-linejoin="round" fill="none" stroke="#000000" d="M 471.58 42.33 L 471.58 50.83 "/>
<path transform="matrix(1,0,0,-1,0,432)" stroke-width="1.07" stroke-linecap="round" stroke-linejoin="round" fill="none" stroke="#000000" d="M 504.38 42.33 L 504.38 45.16 "/>
<path transform="matrix(1,0,0,-1,0,432)" stroke-width="1.07" stroke-linecap="round" stroke-linejoin="round" fill="none" stroke="#000000" d="M 523.56 42.33 L 523.56 45.16 "/>
<path transform="matrix(1,0,0,-1,0,432)" stroke-width="1.07" stroke-linecap="round" stroke-linejoin="round" fill="none" stroke="#000000" d="M 537.17 42.33 L 537.17 45.16 "/>
<path transform="matrix(1,0,0,-1,0,432)" stroke-width="1.07" stroke-linecap="round" stroke-linejoin="round" fill="none" stroke="#000000" d="M 547.73 42.33 L 547.73 48 "/>
<path transform="matrix(1,0,0,-1,0,432)" stroke-width="1.07" stroke-linecap="round" stroke-linejoin="round" fill="none" stroke="#000000" d="M 556.36 42.33 L 556.36 45.16 "/>
<path transform="matrix(1,0,0,-1,0,432)" stroke-width="1.07" stroke-linecap="round" stroke-linejoin="round" fill="none" stroke="#000000" d="M 563.65 42.33 L 563.65 45.16 "/>
<path transform="matrix(1,0,0,-1,0,432)" stroke-width="1.07" stroke-linecap="round" stroke-linejoin="round" fill="none" stroke="#000000" d="M 569.97 42.33 L 569.97 45.16 "/>
<path transform="matrix(1,0,0,-1,0,432)" stroke-width="1.07" stroke-linecap="round" stroke-linejoin="round" fill="none" stroke="#000000" d="M 575.54 42.33 L 575.54 45.16 "/>
<path transform="matrix(1,0,0,-1,0,432)" stroke-width="1.07" stroke-linecap="round" stroke-linejoin="round" fill="none" stroke="#000000" d="M 580.53 42.33 L 580.53 50.83 "/>
<path transform="matrix(1,0,0,-1,0,432)" stroke-width="1.07" stroke-linecap="round" stroke-linejoin="round" fill="none" stroke="#000000" d="M 613.32 42.33 L 613.32 45.16 "/>
<path transform="matrix(1,0,0,-1,0,432)" stroke-width="1.07" stroke-linecap="round" stroke-linejoin="round" fill="none" stroke="#000000" d="M 632.51 42.33 L 632.51 45.16 "/>
<path transform="matrix(1,0,0,-1,0,432)" stroke-width="1.07" stroke-linecap="round" stroke-linejoin="round" fill="none" stroke="#000000" d="M 646.12 42.33 L 646.12 45.16 "/>
<path transform="matrix(1,0,0,-1,0,432)" stroke-width="1.07" stroke-linecap="round" stroke-linejoin="round" fill="none" stroke="#000000" d="M 656.67 42.33 L 656.67 48 "/>
<path transform="matrix(1,0,0,-1,0,432)" stroke-width="1.07" stroke-linecap="round" stroke-linejoin="round" fill="none" stroke="#000000" d="M 665.3 42.33 L 665.3 45.16 "/>
<path transform="matrix(1,0,0,-1,0,432)" stroke-width="1.07" stroke-linecap="round" stroke-linejoin="round" fill="none" stroke="#000000" d="M 672.59 42.33 L 672.59 45.16 "/>
<path transform="matrix(1,0,0,-1,0,432)" stroke-width="1.07" stroke-linecap="round" stroke-linejoin="round" fill="none" stroke="#000000" d="M 678.91 42.33 L 678.91 45.16 "/>
<path transform="matrix(1,0,0,-1,0,432)" stroke-width="1.07" stroke-linecap="round" stroke-linejoin="round" fill="none" stroke="#000000" d="M 684.48 42.33 L 684.48 45.16 "/>
<path transform="matrix(1,0,0,-1,0,432)" stroke-width="1.07" stroke-linecap="round" stroke-linejoin="round" fill="none" stroke="#000000" d="M 689.47 42.33 L 689.47 50.83 "/>
<path transform="matrix(1,0,0,-1,0,432)" stroke-width="1.07" stroke-linecap="round" stroke-linejoin="round" fill="none" stroke="#000000" d="M 722.26 42.33 L 722.26 45.16 "/>
<path transform="matrix(1,0,0,-1,0,432)" stroke-width="1.07" stroke-linecap="round" stroke-linejoin="round" fill="none" stroke="#000000" d="M 741.45 42.33 L 741.45 45.16 "/>
<path transform="matrix(1,0,0,-1,0,432)" stroke-width="1.07" stroke-linecap="round" stroke-linejoin="round" fill="none" stroke="#000000" d="M 755.06 42.33 L 755.06 45.16 "/>
<path transform="matrix(1,0,0,-1,0,432)" stroke-width="1.07" stroke-linecap="round" stroke-linejoin="round" fill="none" stroke="#000000" d="M 765.62 42.33 L 765.62 48 "/>
<path transform="matrix(1,0,0,-1,0,432)" stroke-width="1.07" stroke-linecap="round" stroke-linejoin="round" fill="none" stroke="#000000" d="M 774.24 42.33 L 774.24 45.16 "/>
<path transform="matrix(1,0,0,-1,0,432)" stroke-width="1.07" stroke-linecap="round" stroke-linejoin="round" fill="none" stroke="#000000" d="M 781.54 42.33 L 781.54 45.16 "/>
<path transform="matrix(1,0,0,-1,0,432)" stroke-width="1.07" stroke-linecap="round" stroke-linejoin="round" fill="none" stroke="#000000" d="M 787.85 42.33 L 787.85 45.16 "/>
<path transform="matrix(1,0,0,-1,0,432)" stroke-width="1.07" stroke-linecap="round" stroke-linejoin="round" fill="none" stroke="#000000" d="M 793.43 42.33 L 793.43 45.16 "/>
<path transform="matrix(1,0,0,-1,0,432)" stroke-width="1.07" stroke-linecap="round" stroke-linejoin="round" fill="none" stroke="#000000" d="M 798.41 42.33 L 798.41 50.83 "/>
<path transform="matrix(1,0,0,-1,0,432)" stroke-width="1.07" stroke-linecap="round" stroke-linejoin="round" fill="none" stroke="#000000" d="M 831.21 42.33 L 831.21 45.16 "/>
<path transform="matrix(1,0,0,-1,0,432)" stroke-width="1.07" stroke-linecap="round" stroke-linejoin="round" fill="none" stroke="#000000" d="M 850.39 42.33 L 850.39 45.16 "/>
<path transform="matrix(1,0,0,-1,0,432)" d="M 713.28 310.8 L 713.25 311.69 L 713.17 312.58 L 713.03 313.46 L 712.84 314.32 L 712.59 315.18 L 712.29 316.02 L 711.93 316.83 L 711.53 317.63 L 711.08 318.39 L 710.58 319.13 L 710.03 319.83 L 709.44 320.5 L 708.81 321.13 L 708.14 321.72 L 707.44 322.27 L 706.7 322.77 L 705.94 323.22 L 705.14 323.62 L 704.33 323.98 L 703.49 324.28 L 702.63 324.53 L 701.76 324.72 L 700.89 324.86 L 700 324.94 L 699.11 324.97 L 698.22 324.94 L 697.33 324.86 L 696.45 324.72 L 695.58 324.53 L 694.73 324.28 L 693.89 323.98 L 693.07 323.62 L 692.28 323.22 L 691.51 322.77 L 690.78 322.27 L 690.07 321.72 L 689.41 321.13 L 688.78 320.5 L 688.19 319.83 L 687.64 319.13 L 687.14 318.39 L 686.69 317.63 L 686.28 316.83 L 685.93 316.02 L 685.63 315.18 L 685.38 314.32 L 685.19 313.46 L 685.05 312.58 L 684.96 311.69 L 684.94 310.8 L 684.96 309.91 L 685.05 309.02 L 685.19 308.14 L 685.38 307.27 L 685.63 306.42 L 685.93 305.58 L 686.28 304.76 L 686.69 303.97 L 687.14 303.21 L 687.64 302.47 L 688.19 301.77 L 688.78 301.1 L 689.41 300.47 L 690.07 299.88 L 690.78 299.33 L 691.51 298.83 L 692.28 298.38 L 693.07 297.98 L 693.89 297.62 L 694.73 297.32 L 695.58 297.07 L 696.45 296.88 L 697.33 296.74 L 698.22 296.65 L 699.11 296.63 L 700 296.65 L 700.89 296.74 L 701.76 296.88 L 702.63 297.07 L 703.49 297.32 L 704.33 297.62 L 705.14 297.98 L 705.94 298.38 L 706.7 298.83 L 707.44 299.33 L 708.14 299.88 L 708.81 300.47 L 709.44 301.1 L 710.03 301.77 L 710.58 302.47 L 711.08 303.21 L 711.53 303.97 L 711.93 304.76 L 712.29 305.58 L 712.59 306.42 L 712.84 307.27 L 713.03 308.14 L 713.17 309.02 L 713.25 309.91 Z " fill="#f8766d" fill-opacity=".29799999"/>
<path transform="matrix(1,0,0,-1,0,432)" stroke-width="1.07" stroke-linecap="round" stroke-linejoin="round" fill="none" stroke="#000000" d="M 713.28 310.8 L 713.25 311.69 L 713.17 312.58 L 713.03 313.46 L 712.84 314.32 L 712.59 315.18 L 712.29 316.02 L 711.93 316.83 L 711.53 317.63 L 711.08 318.39 L 710.58 319.13 L 710.03 319.83 L 709.44 320.5 L 708.81 321.13 L 708.14 321.72 L 707.44 322.27 L 706.7 322.77 L 705.94 323.22 L 705.14 323.62 L 704.33 323.98 L 703.49 324.28 L 702.63 324.53 L 701.76 324.72 L 700.89 324.86 L 700 324.94 L 699.11 324.97 L 698.22 324.94 L 697.33 324.86 L 696.45 324.72 L 695.58 324.53 L 694.73 324.28 L 693.89 323.98 L 693.07 323.62 L 692.28 323.22 L 691.51 322.77 L 690.78 322.27 L 690.07 321.72 L 689.41 321.13 L 688.78 320.5 L 688.19 319.83 L 687.64 319.13 L 687.14 318.39 L 686.69 317.63 L 686.28 316.83 L 685.93 316.02 L 685.63 315.18 L 685.38 314.32 L 685.19 313.46 L 685.05 312.58 L 684.96 311.69 L 684.94 310.8 L 684.96 309.91 L 685.05 309.02 L 685.19 308.14 L 685.38 307.27 L 685.63 306.42 L 685.93 305.58 L 686.28 304.76 L 686.69 303.97 L 687.14 303.21 L 687.64 302.47 L 688.19 301.77 L 688.78 301.1 L 689.41 300.47 L 690.07 299.88 L 690.78 299.33 L 691.51 298.83 L 692.28 298.38 L 693.07 297.98 L 693.89 297.62 L 694.73 297.32 L 695.58 297.07 L 696.45 296.88 L 697.33 296.74 L 698.22 296.65 L 699.11 296.63 L 700 296.65 L 700.89 296.74 L 701.76 296.88 L 702.63 297.07 L 703.49 297.32 L 704.33 297.62 L 705.14 297.98 L 705.94 298.38 L 706.7 298.83 L 707.44 299.33 L 708.14 299.88 L 708.81 300.47 L 709.44 301.1 L 710.03 301.77 L 710.58 302.47 L 711.08 303.21 L 711.53 303.97 L 711.93 304.76 L 712.29 305.58 L 712.59 306.42 L 712.84 307.27 L 713.03 308.14 L 713.17 309.02 L 713.25 309.91 Z "/>
<path transform="matrix(1,0,0,-1,0,432)" d="M 849.43 397.62 L 849.4 398.51 L 849.32 399.4 L 849.18 400.28 L 848.98 401.15 L 848.74 402 L 848.43 402.84 L 848.08 403.66 L 847.68 404.45 L 847.22 405.22 L 846.72 405.96 L 846.18 406.66 L 845.59 407.33 L 844.96 407.96 L 844.29 408.55 L 843.59 409.09 L 842.85 409.59 L 842.08 410.04 L 841.29 410.45 L 840.47 410.8 L 839.64 411.1 L 838.78 411.35 L 837.91 411.55 L 837.03 411.69 L 836.15 411.77 L 835.26 411.8 L 834.37 411.77 L 833.48 411.69 L 832.6 411.55 L 831.73 411.35 L 830.88 411.1 L 830.04 410.8 L 829.22 410.45 L 828.43 410.04 L 827.66 409.59 L 826.93 409.09 L 826.22 408.55 L 825.55 407.96 L 824.93 407.33 L 824.34 406.66 L 823.79 405.96 L 823.29 405.22 L 822.84 404.45 L 822.43 403.66 L 822.08 402.84 L 821.78 402 L 821.53 401.15 L 821.33 400.28 L 821.2 399.4 L 821.11 398.51 L 821.08 397.62 L 821.11 396.73 L 821.2 395.85 L 821.33 394.97 L 821.53 394.1 L 821.78 393.24 L 822.08 392.41 L 822.43 391.59 L 822.84 390.8 L 823.29 390.03 L 823.79 389.29 L 824.34 388.59 L 824.93 387.92 L 825.55 387.29 L 826.22 386.7 L 826.93 386.16 L 827.66 385.66 L 828.43 385.2 L 829.22 384.8 L 830.04 384.45 L 830.88 384.15 L 831.73 383.9 L 832.6 383.7 L 833.48 383.56 L 834.37 383.48 L 835.26 383.45 L 836.15 383.48 L 837.03 383.56 L 837.91 383.7 L 838.78 383.9 L 839.64 384.15 L 840.47 384.45 L 841.29 384.8 L 842.08 385.2 L 842.85 385.66 L 843.59 386.16 L 844.29 386.7 L 844.96 387.29 L 845.59 387.92 L 846.18 388.59 L 846.72 389.29 L 847.22 390.03 L 847.68 390.8 L 848.08 391.59 L 848.43 392.41 L 848.74 393.24 L 848.98 394.1 L 849.18 394.97 L 849.32 395.85 L 849.4 396.73 Z " fill="#00ba38" fill-opacity=".29799999"/>
<path transform="matrix(1,0,0,-1,0,432)" stroke-width="1.07" stroke-linecap="round" stroke-linejoin="round" fill="none" stroke="#000000" d="M 849.43 397.62 L 849.4 398.51 L 849.32 399.4 L 849.18 400.28 L 848.98 401.15 L 848.74 402 L 848.43 402.84 L 848.08 403.66 L 847.68 404.45 L 847.22 405.22 L 846.72 405.96 L 846.18 406.66 L 845.59 407.33 L 844.96 407.96 L 844.29 408.55 L 843.59 409.09 L 842.85 409.59 L 842.08 410.04 L 841.29 410.45 L 840.47 410.8 L 839.64 411.1 L 838.78 411.35 L 837.91 411.55 L 837.03 411.69 L 836.15 411.77 L 835.26 411.8 L 834.37 411.77 L 833.48 411.69 L 832.6 411.55 L 831.73 411.35 L 830.88 411.1 L 830.04 410.8 L 829.22 410.45 L 828.43 410.04 L 827.66 409.59 L 826.93 409.09 L 826.22 408.55 L 825.55 407.96 L 824.93 407.33 L 824.34 406.66 L 823.79 405.96 L 823.29 405.22 L 822.84 404.45 L 822.43 403.66 L 822.08 402.84 L 821.78 402 L 821.53 401.15 L 821.33 400.28 L 821.2 399.4 L 821.11 398.51 L 821.08 397.62 L 821.11 396.73 L 821.2 395.85 L 821.33 394.97 L 821.53 394.1 L 821.78 393.24 L 822.08 392.41 L 822.43 391.59 L 822.84 390.8 L 823.29 390.03 L 823.79 389.29 L 824.34 388.59 L 824.93 387.92 L 825.55 387.29 L 826.22 386.7 L 826.93 386.16 L 827.66 385.66 L 828.43 385.2 L 829.22 384.8 L 830.04 384.45 L 830.88 384.15 L 831.73 383.9 L 832.6 383.7 L 833.48 383.56 L 834.37 383.48 L 835.26 383.45 L 836.15 383.48 L 837.03 383.56 L 837.91 383.7 L 838.78 383.9 L 839.64 384.15 L 840.47 384.45 L 841.29 384.8 L 842.08 385.2 L 842.85 385.66 L 843.59 386.16 L 844.29 386.7 L 844.96 387.29 L 845.59 387.92 L 846.18 388.59 L 846.72 389.29 L 847.22 390.03 L 847.68 390.8 L 848.08 391.59 L 848.43 392.41 L 848.74 393.24 L 848.98 394.1 L 849.18 394.97 L 849.32 395.85 L 849.4 396.73 Z "/>
<path transform="matrix(1,0,0,-1,0,432)" d="M 522.81 27.71 L 523.7 27.77 L 527.01 28.08 L 527.9 28.19 L 531.19 28.72 L 532.06 28.88 L 535.31 29.61 L 536.17 29.83 L 539.37 30.76 L 540.22 31.03 L 543.35 32.16 L 544.18 32.49 L 547.23 33.81 L 548.04 34.19 L 551 35.7 L 551.78 36.13 L 554.65 37.83 L 555.4 38.3 L 558.15 40.17 L 558.87 40.7 L 561.51 42.74 L 562.19 43.31 L 564.69 45.51 L 565.34 46.12 L 567.69 48.47 L 568.3 49.12 L 570.5 51.62 L 571.07 52.3 L 573.11 54.93 L 573.63 55.65 L 575.51 58.41 L 575.98 59.16 L 577.68 62.03 L 578.11 62.81 L 579.62 65.77 L 580 66.58 L 581.32 69.63 L 581.65 70.46 L 582.78 73.59 L 583.05 74.44 L 583.98 77.64 L 584.2 78.5 L 584.93 81.75 L 585.09 82.62 L 585.61 85.91 L 585.73 86.8 L 586.04 90.11 L 586.1 91 L 586.2 94.33 L 586.2 95.22 L 586.1 98.54 L 586.04 99.43 L 585.73 102.75 L 585.61 103.63 L 585.09 106.92 L 584.93 107.79 L 584.2 111.04 L 583.98 111.9 L 583.05 115.1 L 582.78 115.95 L 581.65 119.08 L 581.32 119.91 L 580 122.96 L 579.62 123.77 L 578.11 126.74 L 577.68 127.52 L 575.98 130.38 L 575.51 131.13 L 573.63 133.89 L 573.11 134.61 L 571.07 137.24 L 570.5 137.92 L 568.3 140.42 L 567.69 141.07 L 565.34 143.43 L 564.69 144.03 L 562.19 146.24 L 561.51 146.8 L 558.87 148.84 L 558.15 149.37 L 555.4 151.24 L 554.65 151.72 L 551.78 153.41 L 551 153.84 L 548.04 155.35 L 547.23 155.73 L 544.18 157.05 L 543.35 157.38 L 540.22 158.51 L 539.37 158.78 L 536.17 159.71 L 535.31 159.93 L 532.06 160.66 L 531.19 160.83 L 527.9 161.35 L 527.01 161.46 L 523.7 161.77 L 522.81 161.83 L 519.48 161.93 L 518.59 161.93 L 515.27 161.83 L 514.38 161.77 L 511.06 161.46 L 510.18 161.35 L 506.89 160.83 L 506.02 160.66 L 502.77 159.93 L 501.9 159.71 L 498.71 158.78 L 497.86 158.51 L 494.73 157.38 L 493.9 157.05 L 490.84 155.73 L 490.04 155.35 L 487.07 153.84 L 486.29 153.41 L 483.43 151.72 L 482.68 151.24 L 479.92 149.37 L 479.2 148.84 L 476.57 146.8 L 475.88 146.24 L 473.39 144.03 L 472.74 143.43 L 470.38 141.07 L 469.77 140.42 L 467.57 137.92 L 467.01 137.24 L 464.96 134.61 L 464.44 133.89 L 462.57 131.13 L 462.09 130.38 L 460.4 127.52 L 459.97 126.74 L 458.46 123.77 L 458.08 122.96 L 456.76 119.91 L 456.43 119.08 L 455.3 115.95 L 455.03 115.1 L 454.1 111.9 L 453.88 111.04 L 453.15 107.79 L 452.98 106.92 L 452.46 103.63 L 452.35 102.75 L 452.04 99.43 L 451.98 98.54 L 451.88 95.22 L 451.88 94.33 L 451.98 91 L 452.04 90.11 L 452.35 86.8 L 452.46 85.91 L 452.98 82.62 L 453.15 81.75 L 453.88 78.5 L 454.1 77.64 L 455.03 74.44 L 455.3 73.59 L 456.43 70.46 L 456.76 69.63 L 458.08 66.58 L 458.46 65.77 L 459.97 62.81 L 460.4 62.03 L 462.09 59.16 L 462.57 58.41 L 464.44 55.65 L 464.96 54.93 L 467.01 52.3 L 467.57 51.62 L 469.77 49.12 L 470.38 48.47 L 472.74 46.12 L 473.39 45.51 L 475.88 43.31 L 476.57 42.74 L 479.2 40.7 L 479.92 40.17 L 482.68 38.3 L 483.43 37.83 L 486.29 36.13 L 487.07 35.7 L 490.04 34.19 L 490.84 33.81 L 493.9 32.49 L 494.73 32.16 L 497.86 31.03 L 498.71 30.76 L 501.9 29.83 L 502.77 29.61 L 506.02 28.88 L 506.89 28.72 L 510.18 28.19 L 511.06 28.08 L 514.38 27.77 L 515.27 27.71 L 518.59 27.61 L 519.48 27.61 Z " fill="#619cff" fill-opacity=".29799999"/>
<path transform="matrix(1,0,0,-1,0,432)" stroke-width="1.07" stroke-linecap="round" stroke-linejoin="round" fill="none" stroke="#000000" d="M 522.81 27.71 L 523.7 27.77 L 527.01 28.08 L 527.9 28.19 L 531.19 28.72 L 532.06 28.88 L 535.31 29.61 L 536.17 29.83 L 539.37 30.76 L 540.22 31.03 L 543.35 32.16 L 544.18 32.49 L 547.23 33.81 L 548.04 34.19 L 551 35.7 L 551.78 36.13 L 554.65 37.83 L 555.4 38.3 L 558.15 40.17 L 558.87 40.7 L 561.51 42.74 L 562.19 43.31 L 564.69 45.51 L 565.34 46.12 L 567.69 48.47 L 568.3 49.12 L 570.5 51.62 L 571.07 52.3 L 573.11 54.93 L 573.63 55.65 L 575.51 58.41 L 575.98 59.16 L 577.68 62.03 L 578.11 62.81 L 579.62 65.77 L 580 66.58 L 581.32 69.63 L 581.65 70.46 L 582.78 73.59 L 583.05 74.44 L 583.98 77.64 L 584.2 78.5 L 584.93 81.75 L 585.09 82.62 L 585.61 85.91 L 585.73 86.8 L 586.04 90.11 L 586.1 91 L 586.2 94.33 L 586.2 95.22 L 586.1 98.54 L 586.04 99.43 L 585.73 102.75 L 585.61 103.63 L 585.09 106.92 L 584.93 107.79 L 584.2 111.04 L 583.98 111.9 L 583.05 115.1 L 582.78 115.95 L 581.65 119.08 L 581.32 119.91 L 580 122.96 L 579.62 123.77 L 578.11 126.74 L 577.68 127.52 L 575.98 130.38 L 575.51 131.13 L 573.63 133.89 L 573.11 134.61 L 571.07 137.24 L 570.5 137.92 L 568.3 140.42 L 567.69 141.07 L 565.34 143.43 L 564.69 144.03 L 562.19 146.24 L 561.51 146.8 L 558.87 148.84 L 558.15 149.37 L 555.4 151.24 L 554.65 151.72 L 551.78 153.41 L 551 153.84 L 548.04 155.35 L 547.23 155.73 L 544.18 157.05 L 543.35 157.38 L 540.22 158.51 L 539.37 158.78 L 536.17 159.71 L 535.31 159.93 L 532.06 160.66 L 531.19 160.83 L 527.9 161.35 L 527.01 161.46 L 523.7 161.77 L 522.81 161.83 L 519.48 161.93 L 518.59 161.93 L 515.27 161.83 L 514.38 161.77 L 511.06 161.46 L 510.18 161.35 L 506.89 160.83 L 506.02 160.66 L 502.77 159.93 L 501.9 159.71 L 498.71 158.78 L 497.86 158.51 L 494.73 157.38 L 493.9 157.05 L 490.84 155.73 L 490.04 155.35 L 487.07 153.84 L 486.29 153.41 L 483.43 151.72 L 482.68 151.24 L 479.92 149.37 L 479.2 148.84 L 476.57 146.8 L 475.88 146.24 L 473.39 144.03 L 472.74 143.43 L 470.38 141.07 L 469.77 140.42 L 467.57 137.92 L 467.01 137.24 L 464.96 134.61 L 464.44 133.89 L 462.57 131.13 L 462.09 130.38 L 460.4 127.52 L 459.97 126.74 L 458.46 123.77 L 458.08 122.96 L 456.76 119.91 L 456.43 119.08 L 455.3 115.95 L 455.03 115.1 L 454.1 111.9 L 453.88 111.04 L 453.15 107.79 L 452.98 106.92 L 452.46 103.63 L 452.35 102.75 L 452.04 99.43 L 451.98 98.54 L 451.88 95.22 L 451.88 94.33 L 451.98 91 L 452.04 90.11 L 452.35 86.8 L 452.46 85.91 L 452.98 82.62 L 453.15 81.75 L 453.88 78.5 L 454.1 77.64 L 455.03 74.44 L 455.3 73.59 L 456.43 70.46 L 456.76 69.63 L 458.08 66.58 L 458.46 65.77 L 459.97 62.81 L 460.4 62.03 L 462.09 59.16 L 462.57 58.41 L 464.44 55.65 L 464.96 54.93 L 467.01 52.3 L 467.57 51.62 L 469.77 49.12 L 470.38 48.47 L 472.74 46.12 L 473.39 45.51 L 475.88 43.31 L 476.57 42.74 L 479.2 40.7 L 479.92 40.17 L 482.68 38.3 L 483.43 37.83 L 486.29 36.13 L 487.07 35.7 L 490.04 34.19 L 490.84 33.81 L 493.9 32.49 L 494.73 32.16 L 497.86 31.03 L 498.71 30.76 L 501.9 29.83 L 502.77 29.61 L 506.02 28.88 L 506.89 28.72 L 510.18 28.19 L 511.06 28.08 L 514.38 27.77 L 515.27 27.71 L 518.59 27.61 L 519.48 27.61 Z "/>
<path transform="matrix(1,0,0,-1,0,432)" d="M 539.78 239.27 L 847.37 239.27 L 847.37 262.61003 L 539.78 262.61003 Z " fill="#ffffff"/>
<text xml:space="preserve" transform="matrix(1 0 -0 1 0 432)" font-size="12" font-family="Helvetica" font-weight="bold"><tspan y="-247.76" x="545.45 548.786 556.118 560.11398 566.78598 571.274 577.946 585.27798 591.94998 598.62197 601.95797 605.9539 609.2899 615.9619 619.2979 625.9699 633.3019 643.9699 651.3019 657.9739 662.6419 665.9779 672.6499 679.9819 687.31387 690.64987 694.6458 701.9778 705.97378 713.3057 719.9777 724.64578 727.98178 731.9777 739.3097 745.9817 753.31369 756.64968 764.6537 771.3257 777.9977 785.32968 792.6616 799.9936 810.6616 817.9936 825.32559 831.99758 838.66958">Interspecific comparison (other than Pseudomonas)</tspan></text>
</g>
<clipPath id="cp14">
<path transform="matrix(1,0,0,-1,0,432)" d="M 461.65 42.33 L 853.04006 42.33 L 853.04006 421.03999 L 461.65 421.03999 Z "/>
</clipPath>
<g clip-path="url(#cp14)">
</g>
<clipPath id="cp15">
<path transform="matrix(1,0,0,-1,0,432)" d="M 461.65 42.33 L 853.04006 42.33 L 853.04006 421.03999 L 461.65 421.03999 Z "/>
</clipPath>
<g clip-path="url(#cp15)">
</g>
<clipPath id="cp16">
<path transform="matrix(1,0,0,-1,0,432)" d="M 461.65 42.33 L 853.04006 42.33 L 853.04006 421.03999 L 461.65 421.03999 Z "/>
</clipPath>
<g clip-path="url(#cp16)">
<path transform="matrix(1,0,0,-1,0,432)" d="M 513.98 385.96 L 787.06997 385.96 L 787.06997 409.3 L 513.98 409.3 Z " fill="#ffffff"/>
<text xml:space="preserve" transform="matrix(1 0 -0 1 0 432)" font-size="12" font-family="Helvetica" font-weight="bold"><tspan y="-394.44" x="519.65 522.986 530.318 534.31399 540.98599 545.474 552.146 559.47799 566.14999 572.82199 576.15798 580.15396 583.4899 590.1619 593.4979 600.1699 607.5019 618.1699 625.5019 632.1739 636.8419 640.1779 646.8499 654.1819 661.51388 664.84988 668.8458 678.1818 681.5178 685.5138 692.84579 696.18179 704.1858 710.8578 717.5298 724.86178 732.1937 739.5257 750.1937 757.5257 764.85769 771.52969 778.20169">Interspecific comparison (with Pseudomonas)</tspan></text>
</g>
<clipPath id="cp17">
<path transform="matrix(1,0,0,-1,0,432)" d="M 461.65 42.33 L 853.04006 42.33 L 853.04006 421.03999 L 461.65 421.03999 Z "/>
</clipPath>
<g clip-path="url(#cp17)">
</g>
<clipPath id="cp18">
<path transform="matrix(1,0,0,-1,0,432)" d="M 461.65 42.33 L 853.04006 42.33 L 853.04006 421.03999 L 461.65 421.03999 Z "/>
</clipPath>
<g clip-path="url(#cp18)">
</g>
<clipPath id="cp19">
<path transform="matrix(1,0,0,-1,0,432)" d="M 461.65 42.33 L 853.04006 42.33 L 853.04006 421.03999 L 461.65 421.03999 Z "/>
</clipPath>
<g clip-path="url(#cp19)">
<path transform="matrix(1,0,0,-1,0,432)" d="M 582.77 176.25 L 735.11 176.25 L 735.11 199.59 L 582.77 199.59 Z " fill="#ffffff"/>
<text xml:space="preserve" transform="matrix(1 0 -0 1 0 432)" font-size="12" font-family="Helvetica" font-weight="bold"><tspan y="-184.73" x="588.44 591.776 599.108 603.10397 607.772 614.444 621.11599 628.44796 635.11996 641.79196 645.1279 649.1239 652.4599 659.1319 662.4679 669.1399 676.47189 687.1399 694.47189 701.14389 705.8119 709.1479 715.8199 723.15188">Intraspecific comparison</tspan></text>
</g>
<clipPath id="cp20">
<path transform="matrix(1,0,0,-1,0,432)" d="M 461.65 42.33 L 853.04006 42.33 L 853.04006 421.03999 L 461.65 421.03999 Z "/>
</clipPath>
<g clip-path="url(#cp20)">
</g>
<clipPath id="cp21">
<path transform="matrix(1,0,0,-1,0,432)" d="M 461.65 42.33 L 853.04006 42.33 L 853.04006 421.03999 L 461.65 421.03999 Z "/>
</clipPath>
<g clip-path="url(#cp21)">
</g>
<clipPath id="cp22">
<path transform="matrix(1,0,0,-1,0,432)" d="M 461.65 42.33 L 853.04006 42.33 L 853.04006 421.03999 L 461.65 421.03999 Z "/>
</clipPath>
<g clip-path="url(#cp22)">
<path transform="matrix(1,0,0,-1,0,432)" stroke-width="1.07" stroke-linecap="round" stroke-linejoin="round" fill="none" stroke="#000000" d="M 539.78 262.61 L 847.37 262.61 L 756.4 262.61 L 718.6 300.41 "/>
<path transform="matrix(1,0,0,-1,0,432)" stroke-width="1.07" stroke-linecap="round" stroke-linejoin="round" fill="none" stroke="#000000" d="M 513.98 385.96 L 787.07 385.96 L 795.21 394.1 L 813.03 394.1 "/>
<path transform="matrix(1,0,0,-1,0,432)" stroke-width="1.07" stroke-linecap="round" stroke-linejoin="round" fill="none" stroke="#000000" d="M 735.11 176.25 L 582.77 176.25 L 582.77 169.81 L 566.54 153.58 "/>
<text xml:space="preserve" transform="matrix(1 0 -0 1 0 432)" font-size="11" font-family="Helvetica"><tspan y="-87.17" x="702.06 710.002 716.11807 722.2341 731.3971 737.5131 739.95516 745.45516 748.5131 751.5711 757.9951 761.0531 763.4951 769.61117 775.7272 779.3902 786.7272 792.5132 798.0132 800.4552 806.5712 814.51327 816.95529 822.45529 825.51327">Chemdist ~ log(PhyloDist)</tspan></text>
<text xml:space="preserve" transform="matrix(1 0 -0 1 0 432)" font-size="11" font-family="Helvetica"><tspan y="-75.03" x="681.06 689.002 692.06 697.56 703.676 709.79208 715.9081 719.5711 725.68716 731.80319 734.86117 740.9772 744.03518 750.1512 756.2672 759.3252 762.3832 768.4992 774.9232 780.1482 786.2642 788.70626 794.82229 800.9383 803.9963 810.1123 813.1703 819.2863 825.40237 831.5184 837.9424 844.0584">R squared:0.92, p&#x2212;value:2.04e&#x2212;08</tspan></text>
<path transform="matrix(1,0,0,-1,0,432)" stroke-width="2.13" stroke-linecap="round" stroke-linejoin="round" fill="none" stroke="#000000" d="M 461.65 42.33 L 853.04006 42.33 L 853.04006 421.03999 L 461.65 421.03999 Z "/>
</g>
<path transform="matrix(1,0,0,-1,0,432)" stroke-width="1.07" stroke-linecap="butt" stroke-linejoin="round" fill="none" stroke="#000000" d="M 461.65 42.33 L 461.65 421.04 "/>
<text fill="#4d4d4d" xml:space="preserve" transform="matrix(1 0 -0 1 0 432)" font-size="9" font-family="Helvetica"><tspan y="-148.56" x="451.72">6</tspan></text>
<text fill="#4d4d4d" xml:space="preserve" transform="matrix(1 0 -0 1 0 432)" font-size="9" font-family="Helvetica"><tspan y="-269.9" x="451.72">7</tspan></text>
<text fill="#4d4d4d" xml:space="preserve" transform="matrix(1 0 -0 1 0 432)" font-size="9" font-family="Helvetica"><tspan y="-391.24" x="451.72">8</tspan></text>
<path transform="matrix(1,0,0,-1,0,432)" stroke-width="1.07" stroke-linecap="butt" stroke-linejoin="round" fill="none" stroke="#000000" d="M 461.65 42.33 L 853.04 42.33 "/>
<text fill="#4d4d4d" xml:space="preserve" transform="matrix(1 0 -0 1 0 432)" font-size="9" font-family="Helvetica"><tspan y="-28.71" x="464.91 469.914">10</tspan></text>
<text fill="#4d4d4d" xml:space="preserve" transform="matrix(1 0 -0 1 0 432)" font-size="6" font-family="Helvetica"><tspan y="-33.18" x="474.92">0</tspan></text>
<text fill="#4d4d4d" xml:space="preserve" transform="matrix(1 0 -0 1 0 432)" font-size="9" font-family="Helvetica"><tspan y="-28.71" x="573.85 578.854">10</tspan></text>
<text fill="#4d4d4d" xml:space="preserve" transform="matrix(1 0 -0 1 0 432)" font-size="6" font-family="Helvetica"><tspan y="-33.18" x="583.86">1</tspan></text>
<text fill="#4d4d4d" xml:space="preserve" transform="matrix(1 0 -0 1 0 432)" font-size="9" font-family="Helvetica"><tspan y="-28.71" x="682.8 687.804">10</tspan></text>
<text fill="#4d4d4d" xml:space="preserve" transform="matrix(1 0 -0 1 0 432)" font-size="6" font-family="Helvetica"><tspan y="-33.18" x="692.81">2</tspan></text>
<text fill="#4d4d4d" xml:space="preserve" transform="matrix(1 0 -0 1 0 432)" font-size="9" font-family="Helvetica"><tspan y="-28.71" x="791.74 796.744">10</tspan></text>
<text fill="#4d4d4d" xml:space="preserve" transform="matrix(1 0 -0 1 0 432)" font-size="6" font-family="Helvetica"><tspan y="-33.18" x="801.75">3</tspan></text>
<text xml:space="preserve" transform="matrix(1 0 -0 1 0 432)" font-size="11" font-family="Helvetica"><tspan y="-13.76" x="569.99 577.32699 583.113 588.613 591.055 597.171 603.28707 609.4031 615.5191 621.63516 624.6931 627.13516 632.63516 635.6931 643.63516 646.07717 651.57717 654.63516 660.75119 666.8672 672.3672 678.4832 681.5412 690.7042 698.64627 706.58828 713.92526 716.9832 720.64627 729.6443 734.9243 741.04037">Phylogenetic Distance MRCA (mya)</tspan></text>
<text xml:space="preserve" transform="matrix(0 -1 1 0 0 432)" font-size="11" font-family="Helvetica"><tspan y="445.93" x="120.33 128.272 134.388 140.504 149.66699 152.109 157.609 163.72499 166.16699 169.22499 176.122 182.23799 185.29599 189.12398 191.56598 197.06598 200.12398 202.56598 208.06598 211.12398 219.06598 221.50798 227.00798 230.06598 236.18198 242.29798 247.79798 253.91397 256.972 260.03 263.693 269.809 278.972 282.03 289.972 296.08799 302.20399 308.31999 311.98298 318.09898 324.21498 327.76799 333.88398">Chemical Patristic Distance from Dendrogram</tspan></text>
</g>
</svg>
