<?xml version="1.0" encoding="UTF-8" standalone="no"?>
<!DOCTYPE svg PUBLIC "-//W3C//DTD SVG 1.1//EN" "http://www.w3.org/Graphics/SVG/1.1/DTD/svg11.dtd">
<svg xmlns="http://www.w3.org/2000/svg" xmlns:xlink="http://www.w3.org/1999/xlink" version="1.1" width="581.604pt" height="666.793pt" viewBox="0 0 581.604 666.793">
<g enable-background="new">
<clipPath id="cp0">
<path transform="matrix(1,0,0,-1,-5.259,841.89)" d="M 0 0 L 595.276 0 L 595.276 841.89 L 0 841.89 Z "/>
</clipPath>
<g clip-path="url(#cp0)">
<g id="Layer-1" data-name="Layer 1">
<clipPath id="cp1">
<path transform="matrix(1,0,0,-1,-5.259,841.89)" d="M 36.175 568.168 L 299.879 568.168 L 299.879 820.948 L 36.175 820.948 Z "/>
</clipPath>
<g clip-path="url(#cp1)">
<path transform="matrix(1,0,0,-1,30.915303,267.3899)" stroke-width=".53" stroke-linecap="butt" stroke-linejoin="round" fill="none" stroke="#ebecec" d="M 0 0 L 263.705 0 "/>
<path transform="matrix(1,0,0,-1,30.915303,194.62769)" stroke-width=".53" stroke-linecap="butt" stroke-linejoin="round" fill="none" stroke="#ebecec" d="M 0 0 L 263.705 0 "/>
<path transform="matrix(1,0,0,-1,30.915303,121.86603)" stroke-width=".53" stroke-linecap="butt" stroke-linejoin="round" fill="none" stroke="#ebecec" d="M 0 0 L 263.705 0 "/>
<path transform="matrix(1,0,0,-1,30.915303,49.110597)" stroke-width=".53" stroke-linecap="butt" stroke-linejoin="round" fill="none" stroke="#ebecec" d="M 0 0 L 263.705 0 "/>
<path transform="matrix(1,0,0,-1,30.915303,231.00904)" stroke-width="1.07" stroke-linecap="butt" stroke-linejoin="round" fill="none" stroke="#ebecec" d="M 0 0 L 263.705 0 "/>
<path transform="matrix(1,0,0,-1,30.915303,158.24683)" stroke-width="1.07" stroke-linecap="butt" stroke-linejoin="round" fill="none" stroke="#ebecec" d="M 0 0 L 263.705 0 "/>
<path transform="matrix(1,0,0,-1,30.915303,85.491397)" stroke-width="1.07" stroke-linecap="butt" stroke-linejoin="round" fill="none" stroke="#ebecec" d="M 0 0 L 263.705 0 "/>
<path transform="matrix(1,0,0,-1,80.3567,273.72193)" stroke-width="1.07" stroke-linecap="butt" stroke-linejoin="round" fill="none" stroke="#ebecec" d="M 0 0 L 0 252.78 "/>
<path transform="matrix(1,0,0,-1,162.7679,273.72193)" stroke-width="1.07" stroke-linecap="butt" stroke-linejoin="round" fill="none" stroke="#ebecec" d="M 0 0 L 0 252.78 "/>
<path transform="matrix(1,0,0,-1,245.179,273.72193)" stroke-width="1.07" stroke-linecap="butt" stroke-linejoin="round" fill="none" stroke="#ebecec" d="M 0 0 L 0 252.78 "/>
</g>
<path transform="matrix(1,0,0,-1,76.24049,32.43091)" stroke-width="1.07" stroke-linecap="butt" stroke-linejoin="round" fill="none" stroke="#030404" d="M 0 0 L 8.239 0 "/>
<path transform="matrix(1,0,0,-1,80.3567,32.43091)" stroke-width="1.07" stroke-linecap="butt" stroke-linejoin="round" fill="none" stroke="#030404" d="M 0 0 L 0 0 "/>
<path transform="matrix(1,0,0,-1,76.24049,32.43091)" stroke-width="1.07" stroke-linecap="butt" stroke-linejoin="round" fill="none" stroke="#030404" d="M 0 0 L 8.239 0 "/>
<path transform="matrix(1,0,0,-1,158.64479,249.32013)" stroke-width="1.07" stroke-linecap="butt" stroke-linejoin="round" fill="none" stroke="#030404" d="M 0 0 L 8.246 0 "/>
<path transform="matrix(1,0,0,-1,162.7679,249.32013)" stroke-width="1.07" stroke-linecap="butt" stroke-linejoin="round" fill="none" stroke="#030404" d="M 0 0 L 0 -8.374 "/>
<path transform="matrix(1,0,0,-1,158.64479,257.6936)" stroke-width="1.07" stroke-linecap="butt" stroke-linejoin="round" fill="none" stroke="#030404" d="M 0 0 L 8.246 0 "/>
<path transform="matrix(1,0,0,-1,241.0559,253.5373)" stroke-width="1.07" stroke-linecap="butt" stroke-linejoin="round" fill="none" stroke="#030404" d="M 0 0 L 8.239 0 "/>
<path transform="matrix(1,0,0,-1,245.179,253.5373)" stroke-width="1.07" stroke-linecap="butt" stroke-linejoin="round" fill="none" stroke="#030404" d="M 0 0 L 0 -8.695 "/>
<path transform="matrix(1,0,0,-1,241.0559,262.23274)" stroke-width="1.07" stroke-linecap="butt" stroke-linejoin="round" fill="none" stroke="#030404" d="M 0 0 L 8.239 0 "/>
<path transform="matrix(1,0,0,-1,80.3567,32.43091)" stroke-width="1.07" stroke-linecap="butt" stroke-linejoin="round" fill="none" stroke="#030404" d="M 0 0 L 82.411 -221.073 L 164.822 -225.451 "/>
<clipPath id="cp2">
<path transform="matrix(1,0,0,-1,-5.259,841.89)" d="M 36.175 568.168 L 299.879 568.168 L 299.879 820.948 L 36.175 820.948 Z "/>
</clipPath>
<g clip-path="url(#cp2)">
<path transform="matrix(1,0,0,-1,78.906,32.43091)" d="M 0 0 C 0 .799 .651 1.457 1.451 1.457 C 2.256 1.457 2.908 .799 2.908 0 C 2.908 -.799 2.256 -1.457 1.451 -1.457 C .651 -1.457 0 -.799 0 0 " fill="#030404"/>
<path transform="matrix(1,0,0,-1,78.906,32.43091)" stroke-width=".71" stroke-linecap="round" stroke-linejoin="round" fill="none" stroke="#030404" d="M 0 0 C 0 .799 .651 1.457 1.451 1.457 C 2.256 1.457 2.908 .799 2.908 0 C 2.908 -.799 2.256 -1.457 1.451 -1.457 C .651 -1.457 0 -.799 0 0 "/>
<path transform="matrix(1,0,0,-1,161.31079,253.5036)" d="M 0 0 C 0 .799 .658 1.451 1.457 1.451 C 2.256 1.451 2.914 .799 2.914 0 C 2.914 -.806 2.256 -1.457 1.457 -1.457 C .658 -1.457 0 -.806 0 0 " fill="#030404"/>
<path transform="matrix(1,0,0,-1,161.31079,253.5036)" stroke-width=".71" stroke-linecap="round" stroke-linejoin="round" fill="none" stroke="#030404" d="M 0 0 C 0 .799 .658 1.451 1.457 1.451 C 2.256 1.451 2.914 .799 2.914 0 C 2.914 -.806 2.256 -1.457 1.457 -1.457 C .658 -1.457 0 -.806 0 0 "/>
<path transform="matrix(1,0,0,-1,243.722,257.8816)" d="M 0 0 C 0 .799 .651 1.457 1.457 1.457 C 2.256 1.457 2.907 .799 2.907 0 C 2.907 -.806 2.256 -1.457 1.457 -1.457 C .651 -1.457 0 -.806 0 0 " fill="#030404"/>
<path transform="matrix(1,0,0,-1,243.722,257.8816)" stroke-width=".71" stroke-linecap="round" stroke-linejoin="round" fill="none" stroke="#030404" d="M 0 0 C 0 .799 .651 1.457 1.457 1.457 C 2.256 1.457 2.907 .799 2.907 0 C 2.907 -.806 2.256 -1.457 1.457 -1.457 C .651 -1.457 0 -.806 0 0 "/>
</g>
<text fill="#191919" xml:space="preserve" transform="matrix(1 0 -0 1 -5.259 841.89)" font-size="6.0434" font-family="ArialMT"><tspan y="-824.749" x="134.3584 138.38935 143.4235 146.78363 148.12526 149.46689 151.14696 156.1811 159.54125 162.90139 164.24301 167.60315 172.6373 176.16664 179.18834 182.21004 185.57018 186.9118 190.27194 191.95201 195.98296 200.0139">Small/medium&#x2212;scale PPI</tspan></text>
<text fill="#4d4e4e" xml:space="preserve" transform="matrix(1 0 -0 1 -5.259 841.89)" font-size="6.0434" font-family="ArialMT"><tspan y="-560.51956" x="74.53478 78.56573 81.587429 84.947559 88.307689 90.32014 93.68027 155.93938 159.97032 163.33046 166.6906 168.03223 169.7123 171.05393 174.07563 175.41725 177.09732">SynergyAdditivity</tspan></text>
<text fill="#4d4e4e" xml:space="preserve" transform="matrix(1 0 -0 1 -5.259 841.89)" font-size="6.0434" font-family="ArialMT"><tspan y="-560.51956" x="234.48545 238.51639 241.87653 243.5566 246.91674 250.27687 253.63701 256.99714 258.33879 261.36048">Antagonism</tspan></text>
<text fill="#4d4e4e" xml:space="preserve" transform="matrix(1 0 -0 1 -5.259 841.89)" font-size="6.0434" font-family="ArialMT"><tspan y="-608.7096" x="26.145279 29.50541">30</tspan><tspan y="-681.4721" x="26.145279 29.50541">40</tspan><tspan y="-754.2286" x="26.145279 29.50541">50</tspan></text>
<text fill="#030404" xml:space="preserve" transform="matrix(1 0 -0 1 -5.259 841.89)" font-size="7.3863" font-family="ArialMT"><tspan y="-551.6699" x="138.1255">T</tspan></text>
<text fill="#030404" xml:space="preserve" transform="matrix(1 0 -0 1 -5.259 841.89)" font-size="7.3863" font-family="ArialMT"><tspan y="-551.6699" x="141.75957 145.45272 149.5595 153.66628 155.71967 159.82645 161.87984 163.93323 165.57299 169.67977 171.73316">ype of inte</tspan></text>
<text fill="#030404" xml:space="preserve" transform="matrix(1 0 -0 1 -5.259 841.89)" font-size="7.3863" font-family="ArialMT"><tspan y="-551.6699" x="175.83994">r</tspan></text>
<text fill="#030404" xml:space="preserve" transform="matrix(1 0 -0 1 -5.259 841.89)" font-size="7.3863" font-family="ArialMT"><tspan y="-551.6699" x="178.22574 182.33252 186.02567 188.07906 189.71881 193.82559">action</tspan></text>
<text fill="#030404" xml:space="preserve" transform="matrix(0 -1 1 0 -5.259 841.89)" font-size="7.3863" font-family="ArialMT"><tspan y="22.4624" x="676.7412 681.66787 683.3076 687.4144 693.5672 697.674">Sigma </tspan></text>
<text fill="#030404" xml:space="preserve" transform="matrix(0 -1 1 0 -5.259 841.89)" font-size="7.3863" font-family="ArialMT"><tspan y="22.4624" x="699.7274 702.11318 706.22 708.2734">rate</tspan></text>
<clipPath id="cp3">
<path transform="matrix(1,0,0,-1,-5.259,841.89)" d="M 331.123 574.704 L 589.407 574.704 L 589.407 822.287 L 331.123 822.287 Z "/>
</clipPath>
<g clip-path="url(#cp3)">
<path transform="matrix(1,0,0,-1,325.86399,253.2561)" stroke-width=".53" stroke-linecap="butt" stroke-linejoin="round" fill="none" stroke="#ebecec" d="M 0 0 L 258.283 0 "/>
<path transform="matrix(1,0,0,-1,325.86399,208.27124)" stroke-width=".53" stroke-linecap="butt" stroke-linejoin="round" fill="none" stroke="#ebecec" d="M 0 0 L 258.283 0 "/>
<path transform="matrix(1,0,0,-1,325.86399,163.28589)" stroke-width=".53" stroke-linecap="butt" stroke-linejoin="round" fill="none" stroke="#ebecec" d="M 0 0 L 258.283 0 "/>
<path transform="matrix(1,0,0,-1,325.86399,118.30054)" stroke-width=".53" stroke-linecap="butt" stroke-linejoin="round" fill="none" stroke="#ebecec" d="M 0 0 L 258.283 0 "/>
<path transform="matrix(1,0,0,-1,325.86399,73.315189)" stroke-width=".53" stroke-linecap="butt" stroke-linejoin="round" fill="none" stroke="#ebecec" d="M 0 0 L 258.283 0 "/>
<path transform="matrix(1,0,0,-1,325.86399,28.330323)" stroke-width=".53" stroke-linecap="butt" stroke-linejoin="round" fill="none" stroke="#ebecec" d="M 0 0 L 258.283 0 "/>
<path transform="matrix(1,0,0,-1,325.86399,230.76392)" stroke-width="1.07" stroke-linecap="butt" stroke-linejoin="round" fill="none" stroke="#ebecec" d="M 0 0 L 258.283 0 "/>
<path transform="matrix(1,0,0,-1,325.86399,185.7785)" stroke-width="1.07" stroke-linecap="butt" stroke-linejoin="round" fill="none" stroke="#ebecec" d="M 0 0 L 258.283 0 "/>
<path transform="matrix(1,0,0,-1,325.86399,140.79322)" stroke-width="1.07" stroke-linecap="butt" stroke-linejoin="round" fill="none" stroke="#ebecec" d="M 0 0 L 258.283 0 "/>
<path transform="matrix(1,0,0,-1,325.86399,95.8078)" stroke-width="1.07" stroke-linecap="butt" stroke-linejoin="round" fill="none" stroke="#ebecec" d="M 0 0 L 258.283 0 "/>
<path transform="matrix(1,0,0,-1,325.86399,50.822999)" stroke-width="1.07" stroke-linecap="butt" stroke-linejoin="round" fill="none" stroke="#ebecec" d="M 0 0 L 258.283 0 "/>
<path transform="matrix(1,0,0,-1,347.3894,267.1858)" stroke-width="1.07" stroke-linecap="butt" stroke-linejoin="round" fill="none" stroke="#ebecec" d="M 0 0 L 0 247.583 "/>
<path transform="matrix(1,0,0,-1,383.25959,267.1858)" stroke-width="1.07" stroke-linecap="butt" stroke-linejoin="round" fill="none" stroke="#ebecec" d="M 0 0 L 0 247.583 "/>
<path transform="matrix(1,0,0,-1,419.1287,267.1858)" stroke-width="1.07" stroke-linecap="butt" stroke-linejoin="round" fill="none" stroke="#ebecec" d="M 0 0 L 0 247.583 "/>
<path transform="matrix(1,0,0,-1,455.00559,267.1858)" stroke-width="1.07" stroke-linecap="butt" stroke-linejoin="round" fill="none" stroke="#ebecec" d="M 0 0 L 0 247.583 "/>
<path transform="matrix(1,0,0,-1,490.8758,267.1858)" stroke-width="1.07" stroke-linecap="butt" stroke-linejoin="round" fill="none" stroke="#ebecec" d="M 0 0 L 0 247.583 "/>
<path transform="matrix(1,0,0,-1,526.7517,267.1858)" stroke-width="1.07" stroke-linecap="butt" stroke-linejoin="round" fill="none" stroke="#ebecec" d="M 0 0 L 0 247.583 "/>
<path transform="matrix(1,0,0,-1,562.62197,267.1858)" stroke-width="1.07" stroke-linecap="butt" stroke-linejoin="round" fill="none" stroke="#ebecec" d="M 0 0 L 0 247.583 "/>
</g>
<path transform="matrix(1,0,0,-1,345.59449,39.32013)" stroke-width="1.07" stroke-linecap="butt" stroke-linejoin="round" fill="none" stroke="#030404" d="M 0 0 L 3.584 0 "/>
<path transform="matrix(1,0,0,-1,347.3894,39.32013)" stroke-width="1.07" stroke-linecap="butt" stroke-linejoin="round" fill="none" stroke="#030404" d="M 0 0 L 0 -24.222 "/>
<path transform="matrix(1,0,0,-1,345.59449,63.542238)" stroke-width="1.07" stroke-linecap="butt" stroke-linejoin="round" fill="none" stroke="#030404" d="M 0 0 L 3.584 0 "/>
<path transform="matrix(1,0,0,-1,381.46369,30.855713)" stroke-width="1.07" stroke-linecap="butt" stroke-linejoin="round" fill="none" stroke="#030404" d="M 0 0 L 3.591 0 "/>
<path transform="matrix(1,0,0,-1,383.25959,30.855713)" stroke-width="1.07" stroke-linecap="butt" stroke-linejoin="round" fill="none" stroke="#030404" d="M 0 0 L 0 -38.362 "/>
<path transform="matrix(1,0,0,-1,381.46369,69.21802)" stroke-width="1.07" stroke-linecap="butt" stroke-linejoin="round" fill="none" stroke="#030404" d="M 0 0 L 3.591 0 "/>
<path transform="matrix(1,0,0,-1,417.3406,37.06421)" stroke-width="1.07" stroke-linecap="butt" stroke-linejoin="round" fill="none" stroke="#030404" d="M 0 0 L 3.584 0 "/>
<path transform="matrix(1,0,0,-1,419.1287,37.06421)" stroke-width="1.07" stroke-linecap="butt" stroke-linejoin="round" fill="none" stroke="#030404" d="M 0 0 L 0 -37.119 "/>
<path transform="matrix(1,0,0,-1,417.3406,74.18329)" stroke-width="1.07" stroke-linecap="butt" stroke-linejoin="round" fill="none" stroke="#030404" d="M 0 0 L 3.584 0 "/>
<path transform="matrix(1,0,0,-1,453.2097,90.00073)" stroke-width="1.07" stroke-linecap="butt" stroke-linejoin="round" fill="none" stroke="#030404" d="M 0 0 L 3.591 0 "/>
<path transform="matrix(1,0,0,-1,455.00559,90.00073)" stroke-width="1.07" stroke-linecap="butt" stroke-linejoin="round" fill="none" stroke="#030404" d="M 0 0 L 0 -31.088 "/>
<path transform="matrix(1,0,0,-1,453.2097,121.08911)" stroke-width="1.07" stroke-linecap="butt" stroke-linejoin="round" fill="none" stroke="#030404" d="M 0 0 L 3.591 0 "/>
<path transform="matrix(1,0,0,-1,489.0867,130.04663)" stroke-width="1.07" stroke-linecap="butt" stroke-linejoin="round" fill="none" stroke="#030404" d="M 0 0 L 3.584 0 "/>
<path transform="matrix(1,0,0,-1,490.8758,130.04663)" stroke-width="1.07" stroke-linecap="butt" stroke-linejoin="round" fill="none" stroke="#030404" d="M 0 0 L 0 -18.612 "/>
<path transform="matrix(1,0,0,-1,489.0867,148.65894)" stroke-width="1.07" stroke-linecap="butt" stroke-linejoin="round" fill="none" stroke="#030404" d="M 0 0 L 3.584 0 "/>
<path transform="matrix(1,0,0,-1,524.9558,242.08911)" stroke-width="1.07" stroke-linecap="butt" stroke-linejoin="round" fill="none" stroke="#030404" d="M 0 0 L 3.591 0 "/>
<path transform="matrix(1,0,0,-1,526.7517,242.08911)" stroke-width="1.07" stroke-linecap="butt" stroke-linejoin="round" fill="none" stroke="#030404" d="M 0 0 L 0 -13.844 "/>
<path transform="matrix(1,0,0,-1,524.9558,255.9328)" stroke-width="1.07" stroke-linecap="butt" stroke-linejoin="round" fill="none" stroke="#030404" d="M 0 0 L 3.591 0 "/>
<path transform="matrix(1,0,0,-1,560.8328,228.40259)" stroke-width="1.07" stroke-linecap="butt" stroke-linejoin="round" fill="none" stroke="#030404" d="M 0 0 L 3.584 0 "/>
<path transform="matrix(1,0,0,-1,562.62197,228.40259)" stroke-width="1.07" stroke-linecap="butt" stroke-linejoin="round" fill="none" stroke="#030404" d="M 0 0 L 0 -13.752 "/>
<path transform="matrix(1,0,0,-1,560.8328,242.15454)" stroke-width="1.07" stroke-linecap="butt" stroke-linejoin="round" fill="none" stroke="#030404" d="M 0 0 L 3.584 0 "/>
<path transform="matrix(1,0,0,-1,347.3894,51.434328)" stroke-width="1.07" stroke-linecap="butt" stroke-linejoin="round" fill="none" stroke="#030404" d="M 0 0 L 35.87 1.401 L 71.739 -4.189 L 107.616 -54.107 L 143.486 -87.918 L 179.362 -197.58 L 215.232 -183.848 "/>
<clipPath id="cp4">
<path transform="matrix(1,0,0,-1,-5.259,841.89)" d="M 331.123 574.704 L 589.407 574.704 L 589.407 822.287 L 331.123 822.287 Z "/>
</clipPath>
<g clip-path="url(#cp4)">
<path transform="matrix(1,0,0,-1,345.9627,51.434328)" d="M 0 0 C 0 .789 .638 1.427 1.427 1.427 C 2.21 1.427 2.848 .789 2.848 0 C 2.848 -.783 2.21 -1.427 1.427 -1.427 C .638 -1.427 0 -.783 0 0 " fill="#030404"/>
<path transform="matrix(1,0,0,-1,345.9627,51.434328)" stroke-width=".71" stroke-linecap="round" stroke-linejoin="round" fill="none" stroke="#030404" d="M 0 0 C 0 .789 .638 1.427 1.427 1.427 C 2.21 1.427 2.848 .789 2.848 0 C 2.848 -.783 2.21 -1.427 1.427 -1.427 C .638 -1.427 0 -.783 0 0 "/>
<path transform="matrix(1,0,0,-1,381.8318,50.033388)" d="M 0 0 C 0 .783 .645 1.427 1.428 1.427 C 2.21 1.427 2.854 .783 2.854 0 C 2.854 -.79 2.21 -1.427 1.428 -1.427 C .645 -1.427 0 -.79 0 0 " fill="#030404"/>
<path transform="matrix(1,0,0,-1,381.8318,50.033388)" stroke-width=".71" stroke-linecap="round" stroke-linejoin="round" fill="none" stroke="#030404" d="M 0 0 C 0 .783 .645 1.427 1.428 1.427 C 2.21 1.427 2.854 .783 2.854 0 C 2.854 -.79 2.21 -1.427 1.428 -1.427 C .645 -1.427 0 -.79 0 0 "/>
<path transform="matrix(1,0,0,-1,417.7088,55.62384)" d="M 0 0 C 0 .783 .638 1.427 1.42 1.427 C 2.21 1.427 2.848 .783 2.848 0 C 2.848 -.783 2.21 -1.427 1.42 -1.427 C .638 -1.427 0 -.783 0 0 " fill="#030404"/>
<path transform="matrix(1,0,0,-1,417.7088,55.62384)" stroke-width=".71" stroke-linecap="round" stroke-linejoin="round" fill="none" stroke="#030404" d="M 0 0 C 0 .783 .638 1.427 1.42 1.427 C 2.21 1.427 2.848 .783 2.848 0 C 2.848 -.783 2.21 -1.427 1.42 -1.427 C .638 -1.427 0 -.783 0 0 "/>
<path transform="matrix(1,0,0,-1,453.5779,105.54169)" d="M 0 0 C 0 .783 .645 1.427 1.428 1.427 C 2.21 1.427 2.854 .783 2.854 0 C 2.854 -.783 2.21 -1.427 1.428 -1.427 C .645 -1.427 0 -.783 0 0 " fill="#030404"/>
<path transform="matrix(1,0,0,-1,453.5779,105.54169)" stroke-width=".71" stroke-linecap="round" stroke-linejoin="round" fill="none" stroke="#030404" d="M 0 0 C 0 .783 .645 1.427 1.428 1.427 C 2.21 1.427 2.854 .783 2.854 0 C 2.854 -.783 2.21 -1.427 1.428 -1.427 C .645 -1.427 0 -.783 0 0 "/>
<path transform="matrix(1,0,0,-1,489.4549,139.35285)" d="M 0 0 C 0 .783 .638 1.427 1.421 1.427 C 2.21 1.427 2.848 .783 2.848 0 C 2.848 -.79 2.21 -1.427 1.421 -1.427 C .638 -1.427 0 -.79 0 0 " fill="#030404"/>
<path transform="matrix(1,0,0,-1,489.4549,139.35285)" stroke-width=".71" stroke-linecap="round" stroke-linejoin="round" fill="none" stroke="#030404" d="M 0 0 C 0 .783 .638 1.427 1.421 1.427 C 2.21 1.427 2.848 .783 2.848 0 C 2.848 -.79 2.21 -1.427 1.421 -1.427 C .638 -1.427 0 -.79 0 0 "/>
<path transform="matrix(1,0,0,-1,525.32406,249.0144)" d="M 0 0 C 0 .79 .645 1.427 1.428 1.427 C 2.21 1.427 2.854 .79 2.854 0 C 2.854 -.783 2.21 -1.42 1.428 -1.42 C .645 -1.42 0 -.783 0 0 " fill="#030404"/>
<path transform="matrix(1,0,0,-1,525.32406,249.0144)" stroke-width=".71" stroke-linecap="round" stroke-linejoin="round" fill="none" stroke="#030404" d="M 0 0 C 0 .79 .645 1.427 1.428 1.427 C 2.21 1.427 2.854 .79 2.854 0 C 2.854 -.783 2.21 -1.42 1.428 -1.42 C .645 -1.42 0 -.783 0 0 "/>
<path transform="matrix(1,0,0,-1,561.20108,235.28205)" d="M 0 0 C 0 .783 .638 1.427 1.421 1.427 C 2.21 1.427 2.848 .783 2.848 0 C 2.848 -.783 2.21 -1.427 1.421 -1.427 C .638 -1.427 0 -.783 0 0 " fill="#030404"/>
<path transform="matrix(1,0,0,-1,561.20108,235.28205)" stroke-width=".71" stroke-linecap="round" stroke-linejoin="round" fill="none" stroke="#030404" d="M 0 0 C 0 .783 .638 1.427 1.421 1.427 C 2.21 1.427 2.848 .783 2.848 0 C 2.848 -.783 2.21 -1.427 1.421 -1.427 C .638 -1.427 0 -.783 0 0 "/>
</g>
<text fill="#191919" xml:space="preserve" transform="matrix(1 0 -0 1 -5.259 841.89)" font-size="5.9191" font-family="ArialMT"><tspan y="-826.0103" x="427.2886 431.23664 436.16725 439.45826 440.77229 442.0863 443.7318 448.6624 451.95344 455.24446 456.55848 459.8495 464.7801 468.23686 471.1964 474.15599 477.447 478.76103 482.05204 483.69755 487.64558 491.5936">Small/medium&#x2212;scale PPI</tspan></text>
<text fill="#4d4e4e" xml:space="preserve" transform="matrix(1 0 -0 1 -5.259 841.89)" font-size="5.9191" font-family="ArialMT"><tspan y="-567.21548" x="350.9973 386.873 422.74275 458.6184 494.48817 530.36386 564.5052 567.7962">0123456+</tspan><tspan y="-609.0043" x="321.2953 324.5863">20</tspan><tspan y="-653.98947" x="321.2953 324.5863">25</tspan><tspan y="-698.9746" x="321.2953 324.5863">30</tspan><tspan y="-743.9598" x="321.2953 324.5863">35</tspan><tspan y="-788.94497" x="321.2953 324.5863">40</tspan></text>
<text fill="#030404" xml:space="preserve" transform="matrix(1 0 -0 1 -5.259 841.89)" font-size="7.2345" font-family="ArialMT"><tspan y="-558.5454" x="404.4473 410.47364 412.07969 416.10206 417.7081">Minim</tspan></text>
<text fill="#030404" xml:space="preserve" transform="matrix(1 0 -0 1 -5.259 841.89)" font-size="7.2345" font-family="ArialMT"><tspan y="-558.5454" x="423.66215 427.6845 433.71086 435.72206 439.74443 441.35047 444.9677 446.9789 451.00129 455.02366 458.6409 462.66328 464.67448 468.69685 472.7192">um distance bet</tspan></text>
<text fill="#030404" xml:space="preserve" transform="matrix(1 0 -0 1 -5.259 841.89)" font-size="7.2345" font-family="ArialMT"><tspan y="-558.5454" x="474.7304">w</tspan></text>
<text fill="#030404" xml:space="preserve" transform="matrix(1 0 -0 1 -5.259 841.89)" font-size="7.2345" font-family="ArialMT"><tspan y="-558.5454" x="479.88868 483.91105 487.9334 491.95579 493.96699 495.97819 500.00056 502.40965 506.432 510.45439 512.4656">een targets</tspan></text>
<text fill="#030404" xml:space="preserve" transform="matrix(0 -1 1 0 -5.259 841.89)" font-size="7.2345" font-family="ArialMT"><tspan y="317.6924" x="681.0454 685.87088 687.4769 691.4993 697.5257 701.5481">Sigma </tspan></text>
<text fill="#030404" xml:space="preserve" transform="matrix(0 -1 1 0 -5.259 841.89)" font-size="7.2345" font-family="ArialMT"><tspan y="317.6924" x="703.55929 705.89596 709.91836 711.9295">rate</tspan></text>
<clipPath id="cp5">
<path transform="matrix(1,0,0,-1,-5.259,841.89)" d="M 326.326 277.465 L 571.625 277.465 L 571.625 536.28506 L 326.326 536.28506 Z "/>
</clipPath>
<g clip-path="url(#cp5)">
<path transform="matrix(1,0,0,-1,321.0662,527.2493)" stroke-width=".53" stroke-linecap="butt" stroke-linejoin="round" fill="none" stroke="#ebecec" d="M 0 0 L 245.299 0 "/>
<path transform="matrix(1,0,0,-1,321.0662,476.43583)" stroke-width=".53" stroke-linecap="butt" stroke-linejoin="round" fill="none" stroke="#ebecec" d="M 0 0 L 245.299 0 "/>
<path transform="matrix(1,0,0,-1,321.0662,425.62333)" stroke-width=".53" stroke-linecap="butt" stroke-linejoin="round" fill="none" stroke="#ebecec" d="M 0 0 L 245.299 0 "/>
<path transform="matrix(1,0,0,-1,321.0662,374.8103)" stroke-width=".53" stroke-linecap="butt" stroke-linejoin="round" fill="none" stroke="#ebecec" d="M 0 0 L 245.299 0 "/>
<path transform="matrix(1,0,0,-1,321.0662,323.9973)" stroke-width=".53" stroke-linecap="butt" stroke-linejoin="round" fill="none" stroke="#ebecec" d="M 0 0 L 245.299 0 "/>
<path transform="matrix(1,0,0,-1,321.0662,552.65847)" stroke-width="1.07" stroke-linecap="butt" stroke-linejoin="round" fill="none" stroke="#ebecec" d="M 0 0 L 245.299 0 "/>
<path transform="matrix(1,0,0,-1,321.0662,501.84593)" stroke-width="1.07" stroke-linecap="butt" stroke-linejoin="round" fill="none" stroke="#ebecec" d="M 0 0 L 245.299 0 "/>
<path transform="matrix(1,0,0,-1,321.0662,451.0325)" stroke-width="1.07" stroke-linecap="butt" stroke-linejoin="round" fill="none" stroke="#ebecec" d="M 0 0 L 245.299 0 "/>
<path transform="matrix(1,0,0,-1,321.0662,400.22)" stroke-width="1.07" stroke-linecap="butt" stroke-linejoin="round" fill="none" stroke="#ebecec" d="M 0 0 L 245.299 0 "/>
<path transform="matrix(1,0,0,-1,321.0662,349.407)" stroke-width="1.07" stroke-linecap="butt" stroke-linejoin="round" fill="none" stroke="#ebecec" d="M 0 0 L 245.299 0 "/>
<path transform="matrix(1,0,0,-1,349.3709,564.4241)" stroke-width="1.07" stroke-linecap="butt" stroke-linejoin="round" fill="none" stroke="#ebecec" d="M 0 0 L 0 258.82 "/>
<path transform="matrix(1,0,0,-1,396.5437,564.4241)" stroke-width="1.07" stroke-linecap="butt" stroke-linejoin="round" fill="none" stroke="#ebecec" d="M 0 0 L 0 258.82 "/>
<path transform="matrix(1,0,0,-1,443.7156,564.4241)" stroke-width="1.07" stroke-linecap="butt" stroke-linejoin="round" fill="none" stroke="#ebecec" d="M 0 0 L 0 258.82 "/>
<path transform="matrix(1,0,0,-1,490.8885,564.4241)" stroke-width="1.07" stroke-linecap="butt" stroke-linejoin="round" fill="none" stroke="#ebecec" d="M 0 0 L 0 258.82 "/>
<path transform="matrix(1,0,0,-1,538.0603,564.4241)" stroke-width="1.07" stroke-linecap="butt" stroke-linejoin="round" fill="none" stroke="#ebecec" d="M 0 0 L 0 258.82 "/>
</g>
<path transform="matrix(1,0,0,-1,-5.259,841.89)" d="M 342.84 289.232 L 366.427 289.232 L 366.427 500.091 L 342.84 500.091 Z " fill="#f3756d"/>
<path transform="matrix(1,0,0,-1,-5.259,841.89)" stroke-width="1.07" stroke-linecap="square" stroke-miterlimit="10" stroke-linejoin="miter" fill="none" stroke="#030404" d="M 342.84 289.232 L 366.427 289.232 L 366.427 500.091 L 342.84 500.091 Z "/>
<path transform="matrix(1,0,0,-1,-5.259,841.89)" d="M 390.013 289.232 L 413.599 289.232 L 413.599 514.376 L 390.013 514.376 Z " fill="#a2a638"/>
<path transform="matrix(1,0,0,-1,-5.259,841.89)" stroke-width="1.07" stroke-linecap="square" stroke-miterlimit="10" stroke-linejoin="miter" fill="none" stroke="#030404" d="M 390.013 289.232 L 413.599 289.232 L 413.599 514.376 L 390.013 514.376 Z "/>
<path transform="matrix(1,0,0,-1,-5.259,841.89)" d="M 437.185 289.232 L 460.772 289.232 L 460.772 428.224 L 437.185 428.224 Z " fill="#2bb67b"/>
<path transform="matrix(1,0,0,-1,-5.259,841.89)" stroke-width="1.07" stroke-linecap="square" stroke-miterlimit="10" stroke-linejoin="miter" fill="none" stroke="#030404" d="M 437.185 289.232 L 460.772 289.232 L 460.772 428.224 L 437.185 428.224 Z "/>
<path transform="matrix(1,0,0,-1,-5.259,841.89)" d="M 484.357 289.232 L 507.943 289.232 L 507.943 449.414 L 484.357 449.414 Z " fill="#36ace2"/>
<path transform="matrix(1,0,0,-1,-5.259,841.89)" stroke-width="1.07" stroke-linecap="square" stroke-miterlimit="10" stroke-linejoin="miter" fill="none" stroke="#030404" d="M 484.357 289.232 L 507.943 289.232 L 507.943 449.414 L 484.357 449.414 Z "/>
<path transform="matrix(1,0,0,-1,-5.259,841.89)" d="M 531.529 289.232 L 555.11599 289.232 L 555.11599 492.483 L 531.529 492.483 Z " fill="#bd77b2"/>
<path transform="matrix(1,0,0,-1,-5.259,841.89)" stroke-width="1.07" stroke-linecap="square" stroke-miterlimit="10" stroke-linejoin="miter" fill="none" stroke="#030404" d="M 531.529 289.232 L 555.11599 289.232 L 555.11599 492.483 L 531.529 492.483 Z "/>
<path transform="matrix(1,0,0,-1,344.6531,334.6848)" stroke-width="1.07" stroke-linecap="butt" stroke-linejoin="round" fill="none" stroke="#030404" d="M 0 0 L 9.437 0 "/>
<path transform="matrix(1,0,0,-1,349.3709,334.6848)" stroke-width="1.07" stroke-linecap="butt" stroke-linejoin="round" fill="none" stroke="#030404" d="M 0 0 L 0 -14.229 "/>
<path transform="matrix(1,0,0,-1,344.6531,348.9143)" stroke-width="1.07" stroke-linecap="butt" stroke-linejoin="round" fill="none" stroke="#030404" d="M 0 0 L 9.437 0 "/>
<path transform="matrix(1,0,0,-1,391.825,317.3694)" stroke-width="1.07" stroke-linecap="butt" stroke-linejoin="round" fill="none" stroke="#030404" d="M 0 0 L 9.438 0 "/>
<path transform="matrix(1,0,0,-1,396.5437,317.3694)" stroke-width="1.07" stroke-linecap="butt" stroke-linejoin="round" fill="none" stroke="#030404" d="M 0 0 L 0 -20.297 "/>
<path transform="matrix(1,0,0,-1,391.825,337.66624)" stroke-width="1.07" stroke-linecap="butt" stroke-linejoin="round" fill="none" stroke="#030404" d="M 0 0 L 9.438 0 "/>
<path transform="matrix(1,0,0,-1,438.9978,397.2878)" stroke-width="1.07" stroke-linecap="butt" stroke-linejoin="round" fill="none" stroke="#030404" d="M 0 0 L 9.437 0 "/>
<path transform="matrix(1,0,0,-1,443.7156,397.2878)" stroke-width="1.07" stroke-linecap="butt" stroke-linejoin="round" fill="none" stroke="#030404" d="M 0 0 L 0 -32.764 "/>
<path transform="matrix(1,0,0,-1,438.9978,430.052)" stroke-width="1.07" stroke-linecap="butt" stroke-linejoin="round" fill="none" stroke="#030404" d="M 0 0 L 9.437 0 "/>
<path transform="matrix(1,0,0,-1,486.1697,381.9187)" stroke-width="1.07" stroke-linecap="butt" stroke-linejoin="round" fill="none" stroke="#030404" d="M 0 0 L 9.438 0 "/>
<path transform="matrix(1,0,0,-1,490.8885,381.9187)" stroke-width="1.07" stroke-linecap="butt" stroke-linejoin="round" fill="none" stroke="#030404" d="M 0 0 L 0 -21.116 "/>
<path transform="matrix(1,0,0,-1,486.1697,403.0349)" stroke-width="1.07" stroke-linecap="butt" stroke-linejoin="round" fill="none" stroke="#030404" d="M 0 0 L 9.438 0 "/>
<path transform="matrix(1,0,0,-1,533.34268,320.06764)" stroke-width="1.07" stroke-linecap="butt" stroke-linejoin="round" fill="none" stroke="#030404" d="M 0 0 L 9.437 0 "/>
<path transform="matrix(1,0,0,-1,538.0603,320.06764)" stroke-width="1.07" stroke-linecap="butt" stroke-linejoin="round" fill="none" stroke="#030404" d="M 0 0 L 0 -58.673 "/>
<path transform="matrix(1,0,0,-1,533.34268,378.7405)" stroke-width="1.07" stroke-linecap="butt" stroke-linejoin="round" fill="none" stroke="#030404" d="M 0 0 L 9.437 0 "/>
<text fill="#4d4e4e" xml:space="preserve" transform="matrix(1 0 -0 1 -5.259 841.89)" font-size="5.5439" font-family="ArialMT"><tspan y="-287.2412" x="320.209">0</tspan><tspan y="-338.05107" x="320.209">1</tspan><tspan y="-388.86647" x="320.209">2</tspan><tspan y="-439.68186" x="320.209">3</tspan><tspan y="-490.4917" x="320.209">4</tspan></text>
<text fill="#4d4e4e" xml:space="preserve" transform="matrix(0 -1 1 0 -5.259 841.89)" font-size="5.5439" font-family="ArialMT"><tspan y="356.6201" x="252.248 255.94579 259.0282 262.1106 263.34135 264.88255 266.11329 268.88523 270.11598 271.65718">Additivity</tspan></text>
<text fill="#4d4e4e" xml:space="preserve" transform="matrix(0 -1 1 0 -5.259 841.89)" font-size="5.5439" font-family="ArialMT"><tspan y="403.79313" x="219.74411 223.4419 226.5243 229.60672 230.83747 232.37866 233.6094 236.38137 237.6121 239.1533 241.92527 245.1629 248.86069 251.9431 253.4843 256.5667 259.6491 262.7315 265.8139 267.04466 269.8166">Additivity&#x2212;Antagonism</tspan><tspan y="450.96617" x="196.16591 199.8637 202.9461 206.02852 207.25926 208.80046 210.0312 212.80316 214.0339 215.5751 218.34706 221.5847 225.28249 228.3649 229.9061 232.98851 236.07093 239.15334 242.23575 243.46649 246.23845 250.85652 254.09416 257.79194 260.56388 263.64628 266.72868 268.5748 271.6572">Additivity&#x2212;Antagonism&#x2212;Synergy</tspan><tspan y="498.1392" x="228.67534 232.37313 235.45554 238.53795 239.76869 241.30989 242.54064 245.31259 246.54334 248.08454 250.85649 254.09413 257.7919 260.56385 263.64625 266.72865 268.57478 271.65718">Additivity&#x2212;Synergy</tspan><tspan y="545.31228" x="221.58469 225.28247 228.36489 229.90608 232.9885 236.0709 239.15332 242.23574 243.46648 246.23844 250.8565 254.09415 257.79194 260.56388 263.64628 266.72868 268.5748 271.6572">Antagonism&#x2212;Synergy</tspan></text>
<text fill="#030404" xml:space="preserve" transform="matrix(1 0 -0 1 -5.259 841.89)" font-size="6.7759" font-family="ArialMT"><tspan y="-189.6143" x="399.7148 401.5985 405.3659 407.2496">Inte</tspan></text>
<text fill="#030404" xml:space="preserve" transform="matrix(1 0 -0 1 -5.259 841.89)" font-size="6.7759" font-family="ArialMT"><tspan y="-189.6143" x="411.017">r</tspan></text>
<text fill="#030404" xml:space="preserve" transform="matrix(1 0 -0 1 -5.259 841.89)" font-size="6.7759" font-family="ArialMT"><tspan y="-189.6143" x="413.20564 416.97303 420.36097 422.24467 423.7489 427.5163 431.2837 433.1674 435.0511 438.43904 442.20643 445.97383 447.8575 451.6249 455.01286 457.26924 461.03663 464.42457 467.8125 469.6962 473.4636 474.96784 476.47209 478.35578 481.7437">action type across all st</tspan></text>
<text fill="#030404" xml:space="preserve" transform="matrix(1 0 -0 1 -5.259 841.89)" font-size="6.7759" font-family="ArialMT"><tspan y="-189.6143" x="483.6274">r</tspan></text>
<text fill="#030404" xml:space="preserve" transform="matrix(1 0 -0 1 -5.259 841.89)" font-size="6.7759" font-family="ArialMT"><tspan y="-189.6143" x="485.82295 489.59034 491.09458 494.86198">ains</tspan></text>
<text fill="#030404" xml:space="preserve" transform="matrix(0 -1 1 0 -5.259 841.89)" font-size="6.7759" font-family="ArialMT"><tspan y="317.1348" x="372.0801 377.72444 379.22868 382.99607 384.5003">Minim</tspan></text>
<text fill="#030404" xml:space="preserve" transform="matrix(0 -1 1 0 -5.259 841.89)" font-size="6.7759" font-family="ArialMT"><tspan y="317.1348" x="390.0769 393.8443 399.48863 401.3723 405.1397 408.9071 410.7908 414.5582 416.4419 420.2093 421.71354 425.10148 426.98518 430.75257 434.51997 437.9079">um path distance</tspan></text>
<clipPath id="cp6">
<path transform="matrix(1,0,0,-1,-5.259,841.89)" d="M 48.107 276.574 L 290.504 276.574 L 290.504 535.58999 L 48.107 535.58999 Z "/>
</clipPath>
<g clip-path="url(#cp6)">
<path transform="matrix(1,0,0,-1,42.8479,526.46707)" stroke-width=".53" stroke-linecap="butt" stroke-linejoin="round" fill="none" stroke="#ebecec" d="M 0 0 L 242.396 0 "/>
<path transform="matrix(1,0,0,-1,42.8479,472.32353)" stroke-width=".53" stroke-linecap="butt" stroke-linejoin="round" fill="none" stroke="#ebecec" d="M 0 0 L 242.396 0 "/>
<path transform="matrix(1,0,0,-1,42.8479,418.1745)" stroke-width=".53" stroke-linecap="butt" stroke-linejoin="round" fill="none" stroke="#ebecec" d="M 0 0 L 242.396 0 "/>
<path transform="matrix(1,0,0,-1,42.8479,364.03153)" stroke-width=".53" stroke-linecap="butt" stroke-linejoin="round" fill="none" stroke="#ebecec" d="M 0 0 L 242.396 0 "/>
<path transform="matrix(1,0,0,-1,42.8479,309.88215)" stroke-width=".53" stroke-linecap="butt" stroke-linejoin="round" fill="none" stroke="#ebecec" d="M 0 0 L 242.396 0 "/>
<path transform="matrix(1,0,0,-1,42.8479,553.54226)" stroke-width="1.07" stroke-linecap="butt" stroke-linejoin="round" fill="none" stroke="#ebecec" d="M 0 0 L 242.396 0 "/>
<path transform="matrix(1,0,0,-1,42.8479,499.39283)" stroke-width="1.07" stroke-linecap="butt" stroke-linejoin="round" fill="none" stroke="#ebecec" d="M 0 0 L 242.396 0 "/>
<path transform="matrix(1,0,0,-1,42.8479,445.24934)" stroke-width="1.07" stroke-linecap="butt" stroke-linejoin="round" fill="none" stroke="#ebecec" d="M 0 0 L 242.396 0 "/>
<path transform="matrix(1,0,0,-1,42.8479,391.09983)" stroke-width="1.07" stroke-linecap="butt" stroke-linejoin="round" fill="none" stroke="#ebecec" d="M 0 0 L 242.396 0 "/>
<path transform="matrix(1,0,0,-1,42.8479,336.95683)" stroke-width="1.07" stroke-linecap="butt" stroke-linejoin="round" fill="none" stroke="#ebecec" d="M 0 0 L 242.396 0 "/>
<path transform="matrix(1,0,0,-1,70.816699,565.31668)" stroke-width="1.07" stroke-linecap="butt" stroke-linejoin="round" fill="none" stroke="#ebecec" d="M 0 0 L 0 259.017 "/>
<path transform="matrix(1,0,0,-1,117.4329,565.31668)" stroke-width="1.07" stroke-linecap="butt" stroke-linejoin="round" fill="none" stroke="#ebecec" d="M 0 0 L 0 259.017 "/>
<path transform="matrix(1,0,0,-1,164.0428,565.31668)" stroke-width="1.07" stroke-linecap="butt" stroke-linejoin="round" fill="none" stroke="#ebecec" d="M 0 0 L 0 259.017 "/>
<path transform="matrix(1,0,0,-1,210.6595,565.31668)" stroke-width="1.07" stroke-linecap="butt" stroke-linejoin="round" fill="none" stroke="#ebecec" d="M 0 0 L 0 259.017 "/>
<path transform="matrix(1,0,0,-1,257.2757,565.31668)" stroke-width="1.07" stroke-linecap="butt" stroke-linejoin="round" fill="none" stroke="#ebecec" d="M 0 0 L 0 259.017 "/>
</g>
<path transform="matrix(1,0,0,-1,-5.259,841.89)" d="M 64.418 288.348 L 87.726 288.348 L 87.726 388.92298 L 64.418 388.92298 Z " fill="#f3756d"/>
<path transform="matrix(1,0,0,-1,-5.259,841.89)" stroke-width="1.07" stroke-linecap="square" stroke-miterlimit="10" stroke-linejoin="miter" fill="none" stroke="#030404" d="M 64.418 288.348 L 87.726 288.348 L 87.726 388.92298 L 64.418 388.92298 Z "/>
<path transform="matrix(1,0,0,-1,-5.259,841.89)" d="M 111.035 288.348 L 134.343 288.348 L 134.343 409.839 L 111.035 409.839 Z " fill="#a2a638"/>
<path transform="matrix(1,0,0,-1,-5.259,841.89)" stroke-width="1.07" stroke-linecap="square" stroke-miterlimit="10" stroke-linejoin="miter" fill="none" stroke="#030404" d="M 111.035 288.348 L 134.343 288.348 L 134.343 409.839 L 111.035 409.839 Z "/>
<path transform="matrix(1,0,0,-1,-5.259,841.89)" d="M 157.651 288.348 L 180.959 288.348 L 180.959 479.19 L 157.651 479.19 Z " fill="#2bb67b"/>
<path transform="matrix(1,0,0,-1,-5.259,841.89)" stroke-width="1.07" stroke-linecap="square" stroke-miterlimit="10" stroke-linejoin="miter" fill="none" stroke="#030404" d="M 157.651 288.348 L 180.959 288.348 L 180.959 479.19 L 157.651 479.19 Z "/>
<path transform="matrix(1,0,0,-1,-5.259,841.89)" d="M 204.267 288.348 L 227.576 288.348 L 227.576 512.239 L 204.267 512.239 Z " fill="#36ace2"/>
<path transform="matrix(1,0,0,-1,-5.259,841.89)" stroke-width="1.07" stroke-linecap="square" stroke-miterlimit="10" stroke-linejoin="miter" fill="none" stroke="#030404" d="M 204.267 288.348 L 227.576 288.348 L 227.576 512.239 L 204.267 512.239 Z "/>
<path transform="matrix(1,0,0,-1,-5.259,841.89)" d="M 250.884 288.348 L 274.19203 288.348 L 274.19203 437.518 L 250.884 437.518 Z " fill="#bd77b2"/>
<path transform="matrix(1,0,0,-1,-5.259,841.89)" stroke-width="1.07" stroke-linecap="square" stroke-miterlimit="10" stroke-linejoin="miter" fill="none" stroke="#030404" d="M 250.884 288.348 L 274.19203 288.348 L 274.19203 437.518 L 250.884 437.518 Z "/>
<path transform="matrix(1,0,0,-1,66.156,447.75224)" stroke-width="1.07" stroke-linecap="butt" stroke-linejoin="round" fill="none" stroke="#030404" d="M 0 0 L 9.321 0 "/>
<path transform="matrix(1,0,0,-1,70.816699,447.75224)" stroke-width="1.07" stroke-linecap="butt" stroke-linejoin="round" fill="none" stroke="#030404" d="M 0 0 L 0 -10.431 "/>
<path transform="matrix(1,0,0,-1,66.156,458.1828)" stroke-width="1.07" stroke-linecap="butt" stroke-linejoin="round" fill="none" stroke="#030404" d="M 0 0 L 9.321 0 "/>
<path transform="matrix(1,0,0,-1,112.766399,425.8557)" stroke-width="1.07" stroke-linecap="butt" stroke-linejoin="round" fill="none" stroke="#030404" d="M 0 0 L 9.327 0 "/>
<path transform="matrix(1,0,0,-1,117.4329,425.8557)" stroke-width="1.07" stroke-linecap="butt" stroke-linejoin="round" fill="none" stroke="#030404" d="M 0 0 L 0 -12.385 "/>
<path transform="matrix(1,0,0,-1,112.766399,438.2405)" stroke-width="1.07" stroke-linecap="butt" stroke-linejoin="round" fill="none" stroke="#030404" d="M 0 0 L 9.327 0 "/>
<path transform="matrix(1,0,0,-1,159.3826,343.0408)" stroke-width="1.07" stroke-linecap="butt" stroke-linejoin="round" fill="none" stroke="#030404" d="M 0 0 L 9.327 0 "/>
<path transform="matrix(1,0,0,-1,164.0428,343.0408)" stroke-width="1.07" stroke-linecap="butt" stroke-linejoin="round" fill="none" stroke="#030404" d="M 0 0 L 0 -39.318 "/>
<path transform="matrix(1,0,0,-1,159.3826,382.3586)" stroke-width="1.07" stroke-linecap="butt" stroke-linejoin="round" fill="none" stroke="#030404" d="M 0 0 L 9.327 0 "/>
<path transform="matrix(1,0,0,-1,205.9988,318.0744)" stroke-width="1.07" stroke-linecap="butt" stroke-linejoin="round" fill="none" stroke="#030404" d="M 0 0 L 9.321 0 "/>
<path transform="matrix(1,0,0,-1,210.6595,318.0744)" stroke-width="1.07" stroke-linecap="butt" stroke-linejoin="round" fill="none" stroke="#030404" d="M 0 0 L 0 -23.154 "/>
<path transform="matrix(1,0,0,-1,205.9988,341.22874)" stroke-width="1.07" stroke-linecap="butt" stroke-linejoin="round" fill="none" stroke="#030404" d="M 0 0 L 9.321 0 "/>
<path transform="matrix(1,0,0,-1,252.61499,404.3723)" stroke-width="1.07" stroke-linecap="butt" stroke-linejoin="round" fill="none" stroke="#030404" d="M 0 0 L 9.321 0 "/>
<path transform="matrix(1,0,0,-1,257.2757,404.3723)" stroke-width="1.07" stroke-linecap="butt" stroke-linejoin="round" fill="none" stroke="#030404" d="M 0 0 L 0 0 "/>
<path transform="matrix(1,0,0,-1,252.61499,404.3723)" stroke-width="1.07" stroke-linecap="butt" stroke-linejoin="round" fill="none" stroke="#030404" d="M 0 0 L 9.321 0 "/>
<text fill="#4d4e4e" xml:space="preserve" transform="matrix(1 0 -0 1 -5.259 841.89)" font-size="5.5481" font-family="ArialMT"><tspan y="-286.3584" x="41.978">0</tspan><tspan y="-340.50233" x="38.893259 41.978">10</tspan><tspan y="-394.65177" x="38.893259 41.978">20</tspan><tspan y="-448.79566" x="38.893259 41.978">30</tspan><tspan y="-502.9451" x="38.893259 41.978">40</tspan></text>
<text fill="#4d4e4e" xml:space="preserve" transform="matrix(0 -1 1 0 -5.259 841.89)" font-size="5.5481" font-family="ArialMT"><tspan y="78.0654" x="251.3389 255.03948 258.1242 261.20896 262.44065 263.983 265.2147 267.98875 269.22044 270.7628">Additivity</tspan></text>
<text fill="#4d4e4e" xml:space="preserve" transform="matrix(0 -1 1 0 -5.259 841.89)" font-size="5.5481" font-family="ArialMT"><tspan y="124.68054" x="218.8104 222.51097 225.59572 228.68047 229.91214 231.45452 232.68619 235.46024 236.69191 238.23429 241.00833 244.24843 247.949 251.03376 252.57613 255.66088 258.7456 261.83036 264.9151 266.1468 268.92085">Additivity&#x2212;Antagonism</tspan><tspan y="171.29013" x="195.21988 198.92046 202.0052 205.08995 206.32163 207.864 209.09568 211.86972 213.1014 214.64377 217.41782 220.65792 224.35849 227.44324 228.98561 232.07036 235.1551 238.23986 241.3246 242.55628 245.33032 249.95189 253.19199 256.89259 259.66664 262.75138 265.83613 267.68363 270.76838">Additivity&#x2212;Antagonism&#x2212;Synergy</tspan><tspan y="217.90528" x="227.74839 231.44896 234.5337 237.61846 238.85013 240.3925 241.62418 244.39823 245.6299 247.17227 249.94632 253.18642 256.887 259.66105 262.7458 265.83055 267.67805 270.7628">Additivity&#x2212;Synergy</tspan><tspan y="264.52043" x="220.65236 224.35294 227.43769 228.98006 232.0648 235.14955 238.2343 241.31905 242.55072 245.32477 249.94634 253.18643 256.88703 259.66108 262.74583 265.83058 267.67808 270.76283">Antagonism&#x2212;Synergy</tspan></text>
<text fill="#030404" xml:space="preserve" transform="matrix(1 0 -0 1 -5.259 841.89)" font-size="6.781" font-family="ArialMT"><tspan y="-188.6562" x="120.0034 121.88852 125.65875 127.54387">Inte</tspan></text>
<text fill="#030404" xml:space="preserve" transform="matrix(1 0 -0 1 -5.259 841.89)" font-size="6.781" font-family="ArialMT"><tspan y="-188.6562" x="131.3141">r</tspan></text>
<text fill="#030404" xml:space="preserve" transform="matrix(1 0 -0 1 -5.259 841.89)" font-size="6.781" font-family="ArialMT"><tspan y="-188.6562" x="133.50438 137.27462 140.66512 142.55023 144.05562 147.82585 151.59609 153.4812 155.36632 158.75682 162.52706 166.29729 168.1824 171.95264 175.34314 177.60121 181.37145 184.76195 188.15245 190.03757 193.8078 195.31319 196.81858 198.70369 202.0942">action type across all st</tspan></text>
<text fill="#030404" xml:space="preserve" transform="matrix(1 0 -0 1 -5.259 841.89)" font-size="6.781" font-family="ArialMT"><tspan y="-188.6562" x="203.97931">r</tspan></text>
<text fill="#030404" xml:space="preserve" transform="matrix(1 0 -0 1 -5.259 841.89)" font-size="6.781" font-family="ArialMT"><tspan y="-188.6562" x="206.17636 209.9466 211.45198 215.22222">ains</tspan></text>
<text fill="#030404" xml:space="preserve" transform="matrix(0 -1 1 0 -5.259 841.89)" font-size="6.781" font-family="ArialMT"><tspan y="35.8203" x="389.7246 394.24754 395.7529 399.52314 405.1717 408.94194">Sigma </tspan></text>
<text fill="#030404" xml:space="preserve" transform="matrix(0 -1 1 0 -5.259 841.89)" font-size="6.781" font-family="ArialMT"><tspan y="35.8203" x="410.82707 413.01734 416.78758 418.6727">rate</tspan></text>
<text fill="#231f20" xml:space="preserve" transform="matrix(1 0 -0 1 -5.259 841.89)" font-size="21" font-family="MyriadPro"><tspan y="-808.8511" x="13.478 26.330002">A.</tspan><tspan y="-809.0821" x="297.629 308.738">B.</tspan><tspan y="-511.6381" x="19.001008 31.181008 297.86003 311.13203">C.D.</tspan></text>
</g>
</g>
</g>
</svg>
